<?xml version="1.0" encoding="UTF-8"?>
<svg xmlns="http://www.w3.org/2000/svg" width="73" height="10" fill="white">
  <path d="M 0,0 V 10 H 36 V 0 Z m 4.6597531,1.4950125 c 0.6576455,-0.014375 1.1413366,0.1563125 1.3657407,0.24 0,0 0.3024621,0.10375 0.5287531,0.2749875 0.1148276,0.085 0.1305062,0.12 0.1305062,0.12 0,0 0.00869,0.01625 -0.022469,0.1475 l -0.2137531,1.24 c -0.00745,0.0515 -0.036,0.077375 -0.036,0.077375 0,0 -0.015766,0.00875 -0.1237655,-0.07 -0.6823862,-0.5368125 -1.4805062,-0.4725 -1.4805062,-0.4725 -0.6069476,0.0425 -1.3165324,0.3966 -1.5277531,1.29 -0.1880069,0.7930125 0.00745,1.4573 0.432,1.8525 0.2889683,0.2819375 0.7381738,0.4219625 1.2104938,0.3975 0.5141172,-0.0425 0.9256841,-0.266725 0.8955062,-0.25 0,0 0.020607,-0.01 0.044938,-0.0175 0.1067587,-0.059125 0.1304938,-0.0525 0.1304938,-0.0525 0,0 0.022966,0.02525 0.00745,0.1025 l -0.2137531,1.355 c -0.00745,0.066875 -0.038234,0.12 -0.038234,0.12 0,0 -0.032152,0.03325 -0.080938,0.049875 -0.7334463,0.3282625 -1.543496,0.2175 -1.543496,0.2175 C 2.8089434,7.9601875 1.9754441,7.0656875 1.7062014,5.912225 1.3104745,4.1833625 2.0952248,2.95615 2.2867076,2.692225 2.7474207,2.0781875 3.4687241,1.640225 4.1789669,1.53725 4.3482414,1.510875 4.5086897,1.498125 4.6604607,1.494625 Z m 26.3249999,0.1175 H 32.499 c 0.03016,0 0.03835,0.01 0.03835,0.01 0,0 0.01577,0.0165 0.01577,0.049875 v 2.0225 h 1.977753 c 0.0499,0 0.06294,0.01 0.06294,0.01 0,0 0.02471,0.01 0.02471,0.06 v 1.7 c 0,0.016875 -0.02471,0.042625 -0.02471,0.042625 0,0 -0.0074,0.0175 -0.03153,0.0175 h -1.939494 c -0.03128,0 -0.04729,0.015 -0.04729,0.015 0,0 -0.02247,0.01 -0.02247,0.0525 v 2.3 c 0,0.03475 -0.01576,0.042625 -0.01576,0.042625 0,0 -0.0074,0.017375 -0.03153,0.017375 h -1.543507 c -0.0221,0 -0.03823,-0.017375 -0.03823,-0.017375 0,0 -0.0086,-0.01 -0.0086,-0.052625 v -2.3 c 0,-0.024375 -0.01801,-0.0425 -0.01801,-0.0425 0,0 -0.01241,-0.015 -0.03153,-0.015 h -1.991247 c -0.03835,0 -0.04729,-0.01 -0.04729,-0.01 0,0 -0.01354,-0.016 -0.01354,-0.0675 V 3.765 c 0,-0.02075 0.01354,-0.0425 0.01354,-0.0425 0,0 0.0074,-0.00875 0.0247,-0.00875 h 2.034 c 0.01627,0 0.01564,-0.01 0.01564,-0.01 0,0 0.01354,-0.00875 0.01354,-0.025 v -2.015 c 0,-0.024375 0.0086,-0.042625 0.0086,-0.042625 0,0 0.01552,-0.01 0.06071,-0.01 z M 8.9932469,1.7424375 h 0.054 1.7392471 c 0.03128,0 0.05177,0.025 0.05177,0.025 0,0 0.0099,0.00875 0.01799,0.0325 l 1.17,6.1 c 0,0.025625 -0.01577,0.035 -0.01577,0.035 0,0 -0.0074,0.00875 -0.0247,0.00875 l -1.35,0.01 c -0.03128,0 -0.05401,-0.017375 -0.05401,-0.017375 0,0 -0.0074,-0.00875 -0.01576,-0.0675 l -0.211494,-0.9725 c 0,-0.02075 -0.01353,-0.029875 -0.01353,-0.029875 h -0.0247 -1.9080005 c -0.038235,0 -0.060704,0.029875 -0.060704,0.029875 0,0 -0.030786,0.02575 -0.054,0.085 l -0.3802593,0.9025 c -0.015145,0.03475 -0.022469,0.0425 -0.022469,0.0425 0,0 -0.022966,0.0175 -0.042704,0.0175 h -1.572736 c -0.046428,0.00875 -0.054,-0.0175 -0.054,-0.0175 0,0 -0.00993,-0.024125 0.00745,-0.0575 L 8.9581159,1.786325 c 0.011172,-0.03475 0.036,-0.0425 0.036,-0.0425 z m 12.6855061,0 h 1.71 c 0.03824,0 0.05847,0.025 0.05847,0.025 0,0 0.0099,0.00875 0.01799,0.0325 l 1.147506,6.135 c 0,0.018125 -0.0087,0.025 -0.0087,0.025 0,0 -5.09e-4,0.00875 -0.02246,0.00875 h -1.390494 c -0.03016,0.016875 -0.05401,-0.015 -0.05401,-0.015 0,0 -0.0074,-0.00875 -0.01564,-0.06 l -0.184494,-0.955 c -0.01515,-0.046375 -0.0293,-0.0725 -0.0293,-0.0725 0,0 -0.03911,-0.025 -0.08554,-0.025 h -1.806753 c -0.03476,0 -0.05847,0.025 -0.05847,0.025 0,0 -0.03103,0.031 -0.0473,0.0825 l -0.409494,0.97 c -0.0074,0.024375 -0.02246,0.035 -0.02246,0.035 0,0 -0.03216,0.00875 -0.0473,0.00875 h -1.565999 c -0.03836,0.00875 -0.04954,-0.017375 -0.04954,-0.017375 0,0 -0.0074,-0.015125 0.01117,-0.049875 l 2.76074,-6.1075 c 0.01515,-0.00875 0.0293,-0.035 0.0293,-0.035 0,0 0.01776,-0.00875 0.06294,-0.00875 z m 4.376247,0 h 0.08094 1.424248 c 0.03835,0 0.04954,0.00875 0.04954,0.00875 0,0 0.0074,0.0265 0,0.06 L 27.026951,6.4887 c -0.0074,0.05025 0.01576,0.055 0.01576,0.055 0,0 0.01378,0.00875 0.07647,0.00875 h 1.547999 c 0.03365,0 0.04494,0.0175 0.04494,0.0175 0,0 0.0087,0.00875 0.0087,0.049875 l -0.150742,1.2575 c -0.0074,0.05025 -0.01564,0.067625 -0.01564,0.067625 0,0 -0.0074,0.017375 -0.04494,0.017375 h -3.129753 c -0.09049,0 -0.114704,-0.025 -0.114704,-0.025 0,0 -0.01589,-0.034125 -0.0087,-0.11 l 0.776259,-5.985 C 26.04,1.7702 26.05506,1.744825 26.05506,1.744825 Z M 13.5,1.7511875 h 1.543506 c 0.02321,0 0.03823,0.017375 0.03823,0.017375 0,0 0.0144,0.00875 0.02246,0.0325 l 1.741506,3.3875 c 0.03016,0.066875 0.05176,0.06 0.05176,0.06 0,0 0.02309,-2.625e-4 0.03824,-0.0775 l 0.438753,-3.37 c 0,-0.024375 0.01353,-0.0325 0.01353,-0.0325 0,0 0.0074,-0.0175 0.03153,-0.0175 l 1.451247,0.0175 c 0.03128,0 0.04047,0.01 0.04047,0.01 0,0 0.0074,0.005 0.0074,0.0225 L 18.135695,7.89355 c -0.0074,0.03475 -0.02247,0.06 -0.02247,0.06 0,0 -0.0086,0.00875 -0.0473,0.00875 h -1.390494 -0.04494 c 0,0 -0.005,-0.00875 -0.01354,-0.017375 l -1.930494,-3.7975 c -0.01515,-0.016875 -0.02247,-0.0175 -0.02247,-0.0175 0,0 -0.01564,5.75e-4 -0.01564,0.025 l -0.479258,3.73 c -0.0074,0.0425 -0.01564,0.0525 -0.01564,0.0525 0,0 -0.01502,0.00875 -0.03835,0.00875 h -1.381495 c -0.0221,0 -0.03823,-0.0175 -0.03823,-0.0175 0,0 -0.03178,-0.034125 -0.02036,-0.0675 l 0.756,-6.0374875 c 0.0074,-0.03475 0.02471,-0.042625 0.02471,-0.042625 0,0 0.02172,-0.0275 0.04494,-0.0275 z m 8.793,1.7525 c 0,0 -0.0074,-0.0011 -0.01576,0.0325 l -0.758235,1.905 c -0.01627,0.059125 -0.0086,0.0675 -0.0086,0.0675 0,0 0.02197,0.0175 0.03824,0.0175 l 1.125,-0.01 h 0.01354 c 0,0 0.0074,-0.0075 0,-0.032625 l -0.378059,-1.9575 c -0.0074,-0.024375 -0.01576,-0.022625 -0.01576,-0.022625 z M 9.679506,3.5263125 c 0,0 -0.0074,0.0025 -0.01576,0.02 l -0.7582472,1.91 c -0.015145,0.025625 -0.00869,0.0425 -0.00869,0.0425 0,0 0.00869,0.01 0.047297,0.01 l 1.1160002,0.00875 c 0.0074,0 0.01117,-0.00875 0.01117,-0.00875 0,0 0.0074,-0.00875 0,-0.035 L 9.686522,3.5463375 c 0,-0.018125 -0.0074,-0.02 -0.0074,-0.02 z" />
  <path d="m 52.968203,9.9557022 c -0.17608,-0.088596 -0.352159,-0.3100852 -0.352159,-0.442979 -0.04402,-0.088596 -0.04402,-1.5947245 -0.04402,-3.4109384 l 0.04401,-3.2780448 0.08804,-0.1328936 c 0.264117,-0.3986811 0.924415,-0.3986811 1.100494,0.044297 0.08804,0.1771915 0.08804,0.2214895 0.08804,3.4552363 0,3.7210238 0,3.4552364 -0.264119,3.6767258 C 53.496445,9.9557019 53.452426,10 53.276347,10 c -0.132061,0 -0.26412,0 -0.308141,-0.044298 z m 1.892854,0 C 54.773019,9.9114047 54.596938,9.7342127 54.508899,9.601319 54.46488,9.4684254 54.46488,4.5070603 54.552918,4.1526772 c 0.17608,-0.7973624 0.836378,-1.4618308 1.628735,-1.6833204 0.264119,-0.088595 0.836378,-0.088595 1.144515,0 0.308141,0.088595 0.704318,0.2657875 0.968438,0.5315748 0.2201,0.1771915 0.396179,0.4872769 1.804815,2.74647 1.056475,1.6833202 1.628733,2.5249805 1.716773,2.6578741 0.396179,0.3543832 0.968438,0.3543832 1.364616,-0.044297 0.264118,-0.3100854 0.264118,-0.1328937 0.264118,-2.9679594 0.04402,-2.4806827 0.04402,-2.5692784 0.08804,-2.702172 0.220102,-0.3543834 0.748338,-0.3986812 1.056478,-0.088596 0.176078,0.2214894 0.176078,0.1771915 0.176078,2.7907678 0,2.0820013 0,2.5249803 -0.04402,2.7464698 -0.176078,0.885958 -0.836377,1.5504266 -1.716775,1.7719161 -0.704316,0.22149 -1.496673,0 -2.068931,-0.5315747 C 60.671679,9.1140422 60.715698,9.15834 58.734804,6.0574868 58.074507,4.9943373 57.502248,4.0640813 57.458229,4.0197834 57.19411,3.7539959 56.709892,3.6654002 56.357733,3.8425918 c -0.220101,0.088596 -0.484218,0.3543831 -0.528238,0.5758727 -0.04402,0.088595 -0.04402,0.7973622 -0.04402,2.5692783 0,2.5692783 0,2.6135762 -0.176081,2.7907678 -0.176078,0.1771916 -0.484217,0.2657874 -0.748337,0.1771916 z m 12.281539,0 C 66.43828,9.7342127 65.866021,9.15834 65.601902,8.4052757 L 65.513863,8.1837862 V 5.6145078 c 0,-1.4175329 0,-2.657874 0,-2.7464698 0.04401,-0.2214896 0.176079,-0.3986812 0.440199,-0.4429791 0.132059,-0.044298 1.144516,-0.044298 3.433549,-0.044298 3.03737,0 3.257469,0 3.345508,0.088595 0.08804,0.044298 0.176081,0.088595 0.220101,0.1771916 0.04403,0.088596 0.04403,0.2214896 0.04403,3.5438322 0,3.8096195 0.04402,3.58813 -0.220101,3.7210238 C 72.689086,10 72.601052,10 70.003881,10 67.802887,10 67.318669,10 67.142588,9.9557021 Z M 70.047908,6.4561679 V 3.9311875 L 69.959869,3.7539959 C 69.91585,3.6653997 69.827813,3.5325065 69.739773,3.4882085 69.563695,3.3996123 69.563695,3.3996123 68.903397,3.3996123 L 68.243098,3.3553153 68.06702,3.8868902 67.890939,4.374167 68.507218,4.418465 h 0.616277 V 6.7219548 8.981148 h 0.484219 0.440199 z M 40.246464,9.9114044 C 38.61773,9.6899149 37.297134,8.4052757 37.033015,6.7219553 c -0.04402,-0.4872769 -0.04402,-6.4231957 0,-6.55608933 0.08804,-0.17719167 0.308139,-0.22148957 0.440198,-0.088595 l 0.08804,0.088595 0.04402,1.94910763 v 1.9934056 l 0.220092,-0.3100853 c 0.48422,-0.5758728 1.144517,-1.0188518 1.936874,-1.2846393 0.308139,-0.088596 0.352159,-0.088596 0.968437,-0.088596 0.528239,0 0.660298,0 0.924417,0.088596 0.660297,0.1771919 1.188536,0.4872772 1.672755,1.0188521 0.792357,0.7530642 1.144516,1.7276181 1.100495,2.8350656 -0.04402,0.9745539 -0.440198,1.816214 -1.188536,2.5249804 -0.484215,0.487277 -1.012454,0.7973623 -1.67275,0.9745538 -0.396179,0.088596 -0.968438,0.088596 -1.320597,0.044297 z m 0.924418,-0.6201707 c 0.484218,-0.044297 1.100494,-0.3100852 1.540694,-0.6644685 0.440199,-0.3543831 0.880397,-1.0188517 1.056478,-1.6390224 0.04402,-0.2214895 0.04402,-0.3986811 0.04402,-0.8416601 0,-0.442979 0,-0.5315749 -0.08804,-0.8416603 C 43.45991,4.3741665 42.88765,3.7096982 42.007254,3.311017 40.466558,2.5579526 38.573704,3.266719 37.869387,4.8614435 37.605269,5.4816142 37.517229,6.3232743 37.693309,6.943445 c 0.352158,1.2846391 1.408633,2.259193 2.729229,2.3920866 0.2201,0.044298 0.30814,0.044298 0.748339,-0.044298 z m 6.823077,0.6201707 C 47.421702,9.8671064 46.717383,9.5570211 46.233164,9.202638 44.42835,7.829403 44.208252,5.1715288 45.836986,3.5325065 c 0.440199,-0.487277 1.056477,-0.8416601 1.716774,-1.0188519 0.264119,-0.088596 0.396178,-0.088596 0.880397,-0.088596 0.528239,0 0.660298,0 0.924417,0.088596 1.452656,0.3986812 2.509133,1.5947246 2.773253,3.0565555 0.08804,0.5315747 0.04402,0.6644683 -0.04402,0.7973621 l -0.132061,0.1328937 h -2.024913 c -2.156973,0 -2.200993,-0.044297 -2.245012,-0.1771916 -0.04402,-0.1328937 -0.04402,-0.2657875 0.04402,-0.3543832 0.08804,-0.088595 0.08804,-0.088595 1.980893,-0.088595 h 1.848835 V 5.7917011 C 51.559573,5.6145094 51.427514,5.0829347 51.251433,4.8171473 50.723191,3.6654014 49.534655,2.956635 48.25808,3.0009329 c -0.4402,0.044297 -0.748338,0.1328937 -1.188537,0.3543831 -0.616277,0.3100854 -1.100495,0.7530644 -1.408634,1.4175329 -0.2201,0.487277 -0.30814,0.7973624 -0.30814,1.373235 0,0.5758727 0.04402,0.8859581 0.30814,1.3732351 0.176078,0.442979 0.264117,0.5758726 0.572256,0.885958 1.364617,1.4175329 3.609629,1.2403412 4.754147,-0.3986813 0.220098,-0.2657874 0.220098,-0.2657874 0.396178,-0.2657874 0.176079,0 0.264118,0.088595 0.264118,0.2657874 0,0.2657876 -0.660296,0.974554 -1.188536,1.3289372 -0.704318,0.487277 -1.628735,0.7087661 -2.465112,0.5758727 z" />
</svg>
