<?xml version="1.0" encoding="UTF-8"?>
<svg xmlns="http://www.w3.org/2000/svg" width="100" height="100" fill="white">
  <path d="m 18.199517,17.476687 c 0,0 30.869265,-4.406587 31.421478,-4.727125 0.552925,-0.321975 -0.783902,-0.09237 -0.783902,-0.09237 l -9.214226,0.275113 -0.09213,0.413575 h 0.599187 c 0,0 -1.88975,0.321287 -2.119462,0.321287 -0.230363,0 -8.339538,0.918263 -8.339538,0.918263 0,0 -3.91585,0.459137 -4.837587,0.59635 -0.920313,0.137837 -4.149575,0.974987 -6.312088,1.835825 -1.151425,0.459125 -0.3218,0.459125 -0.3218,0.459125" />
  <path d="m 49.943482,12.65715 1.658689,-0.229563 0.04562,0.275738 -1.657976,0.275112" />
  <path d="M 87.63675,7.442487 C 79.988423,-2.2889506 44.77753,0.24744945 38.466079,0.43083695 32.153992,0.61422445 21.990192,2.706062 21.990192,2.706062 l -0.09262,0.2552625 c 0,0 -1.375913,0.2322 -1.60835,0.3022 -0.232438,0.06925 -0.443625,-0.02375 -0.629013,0.023125 -4.0039,0.9987375 -7.36425,2.739575 -7.36425,2.739575 0,0 -0.02388,-0.1391625 -0.186712,0 -0.162888,0.138525 -0.09538,2.41175 -0.09538,2.41175 0,0 0.1185,1.9955255 0.141687,2.2732255 0.02388,0.278375 0.192725,2.358975 0.192725,2.358975 l 0.644213,-0.458438 0.184762,0.366775 0.4145,-0.366775 c 0,0 -0.506562,0.734175 -0.09212,0.550788 0.4145,-0.184013 7.325825,-1.147825 7.325825,-1.147825 0,0 -1.750675,0.321287 -2.11945,0.504675 -0.368837,0.184025 0.092,0.367412 0.092,0.367412 0,0 3.685438,-0.596975 4.285338,-0.688012 0.598562,-0.09237 9.536725,-0.826588 9.536725,-0.826588 L 46.349367,10.5001 c 0,0 0.552213,-0.09163 0.04625,-0.275738 -1.358701,-0.4921125 -11.241688,0.780413 -11.241688,0.780413 0,0 -0.55355,-0.1379 -0.691212,-0.1379 -0.138413,0 -6.219438,0.734875 -6.726625,0.6887 -0.5072,-0.0455 -1.981113,-0.183388 -1.981113,-0.183388 l 0.96735,-0.13785 0.04625,-0.321287 c 4.795863,-0.455175 5.2275,-0.295525 8.246888,-0.550788 8.878513,-0.7493875 19.431644,-1.3530125 23.331545,-1.1907375 20.859201,0.8668125 22.418493,4.2271625 22.418493,4.2271625 0,0 -15.712348,-1.315387 -16.449335,-1.315387 -0.736984,0 -5.116332,0.149787 -5.116332,0.149787 L 58.374821,12.7034 v -0.459138 l -3.962898,0.183388 -5.528742,0.918262 -0.552225,0.183388 -0.5529,-0.09162 c 0,0 -6.635264,1.009925 -7.003402,1.009925 -0.36815,0 -1.750625,0.275737 -2.672325,0.275737 -0.921062,0 -0.921062,0.366775 -0.921062,0.366775 0,0 -11.979288,1.744175 -13.453825,2.019288 -1.474613,0.275737 -6.910725,0.826525 -6.910725,0.826525 l -0.460838,0.459137 c 0,0 -0.921,0.459125 -1.934762,1.285038 -1.014375,0.826587 -0.921675,1.836512 -0.921675,1.836512 l 1.01375,4.956763 3.224512,1.193375 c 0,0 -0.19465,-0.661 0.09212,-0.825913 8.662018,-4.957455 20.825393,-4.406592 22.852855,-4.682342 2.02675,-0.275113 17.599482,-0.8259 27.827479,-1.37675 10.227933,-0.5508 15.204523,0.275737 15.204523,0.275737 l -0.0934,0.366775 2.765127,-1.835825 1.613588,-9.088925" />
  <path d="m 19.811142,31.488062 6.91135,-1.03235 0.276762,0.137213 9.259963,-1.445988 0.484675,0.06925 c 0,0 3.939012,-0.48155 4.21585,-0.6194 0.276075,-0.137837 5.735313,-0.7573 5.735313,-0.7573 0,0 8.154831,-1.23955 8.362743,-1.377387 0.206589,-0.1379 -2.488988,0 -2.488988,0 L 50.842046,26.80645 50.634133,26.530712 43.51613,27.0129 c 0,0 -3.455638,0.2065 -4.838163,0.344337 -1.381213,0.137913 -8.983125,0.825913 -13.060538,1.789725 -4.078112,0.963738 -4.907112,1.6525 -4.907112,1.6525" />
  <path d="m 23.174779,34.01265 0.047,0.229562 12.231538,-1.905125" />
  <path d="m 50.25407,30.106087 1.640051,-0.327187 0.548251,-0.3272 2.734614,-0.108875 z m -0.794575,4.96135 -2.671728,-0.04612 5.251341,-0.642512 z m -22.597953,-2.7759 c -0.783963,0.09175 -1.220975,0.59635 -1.474538,0.527738 -0.253625,-0.06862 -2.488362,0.229575 -2.488362,0.229575 l 1.198462,-0.505313 c 0,0 3.547075,-0.34435 2.764438,-0.252 z m 56.807014,-4.314862 c 0,0 -3.870196,-1.17025 -6.91134,-1.238863 -1.594416,-0.03625 -2.085718,0.02175 -2.192984,0.08575 l -0.156264,-0.15505 -2.902095,-0.34435 0.344938,0.413638 c 0,0 -6.081028,0.137225 -6.772293,-0.1379 -0.690573,-0.275738 -4.561402,0.619462 -5.736025,0.619462 -1.175318,0 -4.699182,-0.06863 -4.699182,-0.06863 0,0 -0.4145,0.41295 -0.346963,0.6194 0.07013,0.2065 -13.613444,1.99615 -13.613444,1.99615 l -13.68365,2.203988 -0.6224,-0.1379 -8.223687,1.170887 -0.206575,1.583263 2.555875,-0.55085 0.0695,0.2065 2.280325,-0.275113 0.0695,0.343725 -4.630338,0.620088 2.075825,4.217237 2.074425,0.568638 0.778675,-0.6201 0.933613,-0.362125 c 0,0 -0.207225,0.0515 0.466837,-0.206513 0.674038,-0.258587 1.987713,-0.723612 3.646388,-0.998675 1.658612,-0.2758 6.45245,-0.804162 6.45245,-0.804162 0,0 2.92195,-0.27775 4.304562,-0.621413 1.3819,-0.345037 6.496149,-0.47565 6.703437,-0.54425 0.206576,-0.06925 6.565694,-0.622737 6.565694,-0.622737 l 0.01313,-0.284338 0.884675,-0.182012 0.351562,0.401712 c 0,0 2.32604,-0.769175 2.81009,-0.907012 0.483363,-0.137913 3.551051,0.155675 3.551051,0.155675 l 5.515567,-0.764588 -1.001839,0.466413 0.780686,0.155 7.619825,-0.6346 c 0,0 4.681279,-0.60885 5.857225,-0.401713 l -0.05164,-0.414962 c 0,0 -3.363697,0.195262 -5.230912,0.401762 -1.864566,0.20645 -1.001145,-0.129987 -1.001145,-0.129987 l -3.85027,0.4024 v -0.4149 c 0,0 9.19898,-0.870125 12.761252,-0.323925 0.89924,0.1379 2.919377,-3.108363 2.919377,-3.108363 l 0.138415,-0.618762 0.138356,-0.551488" />
  <path d="M 42.387242,41.391712 44.967591,41.1166 43.216217,41.52955" />
  <path d="M 30.915117,50.388287 31.283954,50.0215 28.289092,50.61785 Z M 80.950532,39.142237 C 80.720112,38.7286 78.831015,38.224612 78.831015,38.224612 L 78.554936,38.408 c 0,0 -12.44015,0.55085 -13.269203,0.642512 -0.829621,0.09175 -3.870135,0.229563 -7.601221,0.459138 -3.733101,0.229562 -6.680979,0.872075 -6.680979,0.872075 0,0 -0.460787,0.1379 -2.533952,0.229562 -2.073101,0.09175 -9.122852,0.963813 -9.122852,0.963813 l -0.184075,0.275737 -0.552875,0.183388 -0.322475,-0.275113 c 0,0 -1.658612,0.412963 -2.349262,0.550175 -0.69125,0.1379 -0.7376,0.184075 -1.428875,0.184075 -0.69125,0 -3.040513,0.27505 -3.040513,0.27505 l -1.797662,0.5053 c 0,0 -0.92105,0.09175 -1.704388,0.3206 -0.783275,0.230263 -2.394887,1.194 -2.394887,1.194 l 0.04563,0.1834 -0.829688,1.056163 3.399388,3.890725 2.5115,-0.394488 0.231675,0.06525 1.15615,-0.329137 V 48.964 l 2.83785,-0.362125 2.847225,-0.527113 0.06688,0.263238 c 0,0 0.648262,0.08637 0.92435,0.131937 0.276765,0.0455 0.630977,-0.131937 0.630977,-0.131937 l 1.584513,-0.263238 9.783679,-1.5146 0.362837,0.230263 c 0,0 6.545843,-0.368788 7.564834,-1.079225 0.454916,-0.317325 1.363364,-0.157 1.731509,-0.20255 0.368839,-0.04613 2.037414,-0.50795 2.037414,-0.50795 l 0.509778,0.7105 10.594125,-1.82665 5.327519,-1.539675 -0.331002,0.428162 -2.412813,0.395175 -0.06557,0.296788 3.80064,-0.52705 c 0,0 0.479384,-0.126025 1.123671,-1.778463 0.645548,-1.6525 0.176129,-1.604312 -0.05429,-2.017275" />
  <path d="m 28.442092,50.313075 -2.43735,-2.2739 v -0.465038 c 0,0 -1.3488,-1.102975 -1.3488,-1.240875 0,-0.137837 -0.282688,-0.53565 0.03912,-0.902425 0.323112,-0.3674 1.29115,-1.10165 1.29115,-1.10165 l 2.578967,-1.055475 0.46155,-0.184012 c 0,0 -0.04625,-0.183388 -0.230362,-0.183388 -0.184825,0 -1.889788,0 -3.178925,1.009925 -1.289838,1.009988 -1.520325,1.606325 -1.520325,1.606325 l 0.143787,0.8107 3.682713,4.238413" />
  <path d="m 53.60376,47.514762 4.859421,-0.592387 c 0,0 -0.121888,-0.698613 0.660807,-0.790275 0.78264,-0.09175 3.668847,0.099 3.668847,0.099 l 2.44592,-0.428788 0.396647,0.099 6.214085,-1.053525 1.189883,-0.033 0.09933,0.230888 0.69322,-0.099 0.03374,-0.263863 5.197114,-1.203862 -1.363301,2.52125 -3.17231,0.494062 -0.03311,0.3292 c 0,0 -8.332911,0.534963 -12.06406,0.85625 -3.732411,0.321238 -7.776784,0.446575 -8.330321,0.263188 -0.552164,-0.1834 -0.495914,-0.4281 -0.495914,-0.4281" />
  <path d="m 74.956843,46.856412 1.55204,-0.033 0.661503,0.066 0.364174,-0.560087 -2.677035,0.29685" />
  <path d="m 72.841362,52.408187 c 0,0 0.04635,-0.459125 0.276771,-1.056162 0.229792,-0.596963 -0.5304,-0.678763 -0.5304,-0.678763 0,0 -1.173928,0.17415 -2.464396,0.403713 C 68.832746,51.30585 60.81703,51.7195 60.81703,51.7195 l -11.242323,1.835825 -13.269203,2.0199 -0.5065,-0.04613 -4.975962,0.872087 -0.0125,0.52905 c 0,0 0.579387,1.189425 1.454725,2.107613 0.874725,0.9177 2.841875,1.483637 2.841875,1.483637 l 0.548875,0.1095 0.495287,0.602313 2.089,-0.602313 h 0.495963 c 0,0 0.138362,-0.121375 1.493787,-0.506625 0.926338,-0.263175 -0.401262,-0.13125 1.091175,-0.3958 2.205613,-0.389212 3.602699,-0.4281 3.602699,-0.4281 l -0.198698,0.231513 0.018,0.1854 0.811823,0.06863 0.1728,-0.292275 -0.449,-0.189288 1.105827,-0.102875 0.183387,0.366775 1.285164,-0.228937 0.03438,-0.224288 -1.226201,-0.01713 c 0,0 0.589925,-0.06263 0.811776,-0.08638 0.7455,-0.0785 2.092339,-0.203875 2.660451,-0.275112 0.737614,-0.09237 0.828976,0.01713 0.828976,0.01713 l 5.597679,-0.602238 0.39791,-0.189362 1.088545,0.0865 c 0,0 2.988869,-0.373375 3.265009,-0.465725 0.276077,-0.091 0.116475,0.1504 1.452025,-0.0785 1.336184,-0.229563 5.036182,-0.352263 6.549817,-0.815975 1.329563,-0.407675 3.159699,-3.638113 3.159699,-3.638113 l 0.828295,-0.8259" />
  <path d="m 54.643311,51.99455 c -3.73444,0 -18.153032,1.422937 -18.705269,1.515287 -0.553525,0.091 -4.054888,0.779725 -4.054888,0.779725 l 0.09213,-0.458437 -0.230475,0.0455 -0.829625,2.019912 5.022925,-0.6887 c 0,0 2.394975,-0.413637 2.578988,-0.413637 0.185462,0 8.0178,-1.146513 8.0178,-1.146513 0,0 9.767083,-1.423562 9.95122,-1.46905 0.184075,-0.04613 0.138363,-0.275737 0.138363,-0.275737 0,0 -0.737688,0.09163 -1.981102,0.09163" />
  <path d="m 52.984635,63.0506 -2.626015,0.41295 0.413863,0.207137 z m 0.897913,3.0292 3.040512,-0.7223 -5.044814,0.8259 z m -15.860094,3.202037 -0.65685,-0.6537 c 0,0 0.311213,0.481563 0.414563,0.5508 0.10325,0.068 0.242287,0.102875 0.242287,0.102875 z m -1.866537,-2.203287 -0.345625,-0.343663 -0.06887,0.137213 0.380125,0.515862 z m 11.092688,5.955487 -1.209688,-1.135262 1.105763,1.307462 z m 10.917246,-10.234112 -0.06691,0.01 z m 3.975445,2.143925 -0.1033,0.04025 -0.346326,0.304075 z m 1.313671,-1.5832 -0.760759,-1.480925 v 0.275737 l -4.528357,0.644463 c 0.165532,-0.02238 0.568804,-0.066 0.486005,0.04425 -0.104613,0.137212 -1.383164,0.172137 -1.451395,0.06925 -0.0695,-0.1035 -0.691899,0.240125 -0.968036,0.37865 -0.276075,0.137212 -3.870828,0.309425 -3.870828,0.309425 l -0.03375,0.1035 -0.622351,0.03363 c 0,0 -1.036263,0.241437 -1.277976,0.241437 -0.242963,0 0.206663,-0.206512 0.206663,-0.206512 0,0 -1.417038,0.102875 -1.520263,0.102875 -0.10325,0 0.207212,-0.171513 0.207212,-0.171513 l -1.346776,0.1379 c 0,0 0.621712,-0.207137 -1.105764,0.137213 -1.728164,0.34435 -4.561388,0.654387 -4.561388,0.654387 l 0.10325,-0.172837 c 0,0 -2.141962,0.37865 -2.55645,0.37865 -0.415125,0 -1.452037,0.31005 -1.452037,0.31005 l -0.27615,-0.068 -1.657975,0.41295 -0.242963,0.515862 c 0,0 0.276763,0.447888 0.311125,0.585163 0.03513,0.138525 0.104,0.275737 0.104,0.275737 l 2.557175,3.304938 c 0,0 2.004313,1.927562 2.76375,3.20135 0,0 -14.996,3.1671 -14.946362,26.035825 0,0 4.950787,-22.1919 20.496976,-25.422338 l -5.864476,-6.38428 15.26613,-2.461887 c 0,0 2.394965,-0.270463 2.601489,-0.3054 0.20791,-0.03363 1.210379,-0.1372 1.210379,-0.1372 l 0.934301,-0.191313 0.136399,-0.222337 0.172153,0.207137 -0.897158,0.48225 -0.08475,0.0145 -2.300249,0.39775 3.00602,-0.27505 0.346326,-0.131937 0.552219,-0.487525" />
  <path d="m 66.543848,76.494037 c -0.119887,-0.0805 -0.227775,-0.147762 -0.32249,-0.207137 0.05757,0.03562 0.21718,0.142487 0.32249,0.207137 z m 0.482663,0.3331 c 0.268132,0.203875 0.540994,0.414275 0.843557,0.613488 -0.3264,-0.23415 -0.599891,-0.444613 -0.843557,-0.613488 z m 0,0 -0.189369,-0.149712 1.025044,0.738137 -1.396468,-1.141862 0.172784,0.197912 -0.143021,-0.066 -0.08873,-0.07463 -0.165534,-0.125337 0.247008,0.197275 -0.09206,-0.04287 0.247638,0.178112 c 0.01659,0.02312 -0.02914,-7.37e-4 -0.09995,-0.04412 0.143652,0.09362 0.301868,0.209088 0.482663,0.3331 z m -0.736293,-2.298912 0.0025,-0.06338 0.0038,0.01387 -0.0066,0.0495 z m 9.489688,-6.941738 -0.0025,0.0062 -0.01125,0.01125 0.01395,-0.01788 z M 72.99567,82.639512 72.92214,82.535887 c -0.0934,-0.131237 0.892553,-1.095675 1.857312,-3.711925 0.207909,-0.508637 0.381388,-1.025812 0.501895,-1.542312 0.552851,-1.932825 1.028264,-4.512138 1.191779,-7.918038 0.01187,-0.127975 0.0232,-0.269775 0.03249,-0.4215 0.0085,-0.228237 0.01456,-0.4585 0.0079,-0.688062 l 0.0025,-0.07388 c 0.0159,-0.686675 -0.138416,-0.8991 -0.310571,-0.9143 l -0.002,-7.38e-4 h -0.03171 l -0.155698,0.04812 -0.01112,0.01 c -0.08943,0.056 -0.16421,0.138525 -0.198642,0.2038 -0.07151,0.091 -0.132427,0.190675 -0.195359,0.2863 l 0.106637,-0.1484 -0.209233,0.331163 c -0.174172,0.320587 -0.330437,0.649112 -0.476042,0.985537 L 74.916336,69.2963 c -0.171524,0.339762 -0.300609,0.60425 -0.300609,0.63925 0,0.08375 -0.923644,2.767275 -1.278546,3.800325 -0.04376,0.110875 -0.09005,0.22095 -0.135769,0.330525 0.0073,-0.1854 0.002,-0.752713 -0.225126,-1.4269 l -0.01456,-0.0455 -0.05695,-0.155675 c -0.210557,-0.55545 -0.54894,-1.053525 -0.983237,-1.446688 l -0.06294,-0.05213 -0.148317,-0.126025 -0.0159,-0.01 c -0.15229,-0.12275 -0.315175,-0.242075 -0.499879,-0.35095 -0.858124,-0.506625 -1.762599,-0.465037 -2.548581,-0.223587 -0.576686,0.133875 -1.140194,0.388512 -1.647386,0.761875 -0.146363,0.09037 -0.290645,0.229575 -0.426414,0.397125 -0.07284,0.06137 -0.111863,0.09762 -0.111863,0.09762 0,0 -0.03442,0.068 -0.08678,0.17685 -0.339643,0.51975 -0.589298,1.180737 -0.603866,1.616125 l 0.01325,0.127975 c -0.0037,0.08175 0.0012,0.155062 0.02056,0.213737 0.173415,0.515925 0.449556,0.102875 0.449556,0.102875 l 0.01125,0.224975 -0.04308,0.05938 0.04105,0.1095 c -0.03707,0.168175 -0.02649,0.349625 0.06091,0.505938 l 0.008,-0.02837 c 0.165473,0.5251 0.856108,2.310162 2.55514,2.512025 l 0.149579,0.03887 0.07088,-0.0185 0.04301,0.0038 0.09605,0.04087 0.196683,0.02437 h 0.07081 l 0.0012,-7.38e-4 0.01856,-0.0062 0.02844,0.005 -0.02509,7.38e-4 h -7.38e-4 l -0.02251,7.37e-4 -0.03311,0.005 c 0.151597,0.033 0.301237,0.0038 0.452898,-0.0025 l 0.0934,-0.01787 0.06225,-0.0125 c 0.07744,-0.0075 0.139048,-0.0125 0.150272,-0.01 l 0.0589,0.0088 0.01659,0.005 0.07883,-0.0205 -0.0159,-0.0037 h 7.38e-4 l 0.02914,-7.37e-4 0.333653,-0.09163 c 0.199332,-0.03687 0.378047,-0.134575 0.562811,-0.228238 0.415127,-0.155687 0.623101,-0.325875 0.69196,-0.390525 -0.156325,0.247338 -0.319145,0.491425 -0.496661,0.730225 0.01985,0.0125 -0.245619,0.338438 -0.576688,0.648475 l -0.02117,0.01775 -0.107262,0.08575 -0.0179,0.01387 -0.1125,0.08113 -0.012,0.0088 -0.119825,0.07587 -0.0079,0.005 -0.124488,0.06862 -0.01255,0.0063 -0.123162,0.05737 -0.012,0.005 -0.124488,0.04675 -0.01521,0.005 -0.123163,0.03562 -0.02384,0.0062 -0.115838,0.023 -0.03249,0.0037 -0.06154,0.0062 c -0.783337,-0.0435 -2.691604,-1.381975 -4.009879,-2.37745 -0.562181,-0.441275 -1.148832,-0.910337 -1.736111,-1.384612 -0.746886,-0.631963 -2.467171,-2.066775 -3.931744,-3.117588 -0.85617,-0.639887 -1.534193,-1.089775 -1.889098,-1.188725 -0.0821,-0.02237 -0.156263,-0.04025 -0.225755,-0.05412 -0.06362,-0.01325 -0.119875,-0.02237 -0.175434,-0.03037 0.589929,0.01325 1.262656,0.525088 1.822127,0.888538 -0.04036,-0.0145 0.07681,0.0845 0.346263,0.283662 l 0.36821,0.221013 c -0.148381,-0.1055 -0.293356,-0.2197 -0.440351,-0.335113 h -6.4e-4 c -0.61244,-0.48155 -1.230872,-0.9895 -2.011495,-1.076575 0.0066,-0.0037 -0.415189,-0.1135 -0.640314,0.0088 -0.270844,0.224925 -0.157525,0.286925 -0.157525,0.33575 l 0.0012,-7.37e-4 v 7.37e-4 h -0.0012 v 0.0025 0.02837 c -0.09743,0.257275 -0.04641,0.586413 -0.0074,0.75925 -0.15292,0.0075 0.05101,0.443988 1.473279,2.172325 1.639502,1.874088 4.284691,5.6751 4.758086,8.79075 0.04635,0.600925 0.04042,1.212475 -0.01387,1.831238 -0.02717,0.126662 -0.05757,0.252625 -0.09736,0.374012 -0.305213,2.079963 -1.062693,4.0662 -1.994345,5.913963 -0.466835,0.925487 -0.976613,1.824637 -1.528897,2.694712 -0.207845,0.378025 -0.740895,0.883338 -0.608404,1.6848 0.01715,0.155688 0.06879,0.286988 0.142894,0.397813 l 0.07554,0.15235 c 0.248269,0.448575 0.732319,0.45385 1.227595,0.295537 0.117225,-0.02237 0.221152,-0.06 0.301238,-0.110125 l 0.0437,-0.02375 c 0.601981,-0.272645 1.140327,-0.696157 1.192603,-0.747607 l 0.0012,-0.0012 c 1.379822,-0.982913 2.446485,-2.161088 3.681394,-3.275238 0.754833,-0.732925 1.499069,-1.481612 2.22874,-2.262662 0.361524,-0.3958 0.726328,-0.7857 1.072024,-1.218438 0.12839,-0.181375 0.249591,-0.321225 0.292662,-0.370037 0.06816,-0.0063 0.318457,0.181375 0.483358,0.327825 2.506141,2.727062 4.16677,6.096025 5.891657,9.7222 l 0.03904,0.1636 0.0278,0.114875 0.03708,0.149025 0.03109,0.112125 c 0.01924,0.06988 0.0391,0.135887 0.05896,0.1979 l 0.02649,0.08837 0.03576,0.10225 0.02851,0.07975 0.0536,0.130612 0.02649,0.062 0.03179,0.064 0.02781,0.05012 0.04635,0.07525 0.02781,0.03825 0.02914,0.03363 0.02515,0.02438 0.04105,0.03162 0.02781,0.0165 0.02711,0.01 h 0.0056 l 0.103237,0.05088 0.06294,0.131925 c 0.123162,-0.211725 0.2337,-0.42545 0.337686,-0.639187 0.381389,-0.677513 0.893879,-1.973725 0.942248,-3.5134 C 77.995964,92.5068 77.093444,89.794237 75.934712,87.4722 75.113667,85.789412 74.214491,84.031362 72.995537,82.638837 Z m -6.077118,-6.7214 -0.01784,-0.0725 z m 15.246965,16.911975 c -1.987722,0 -3.599986,1.605638 -3.599986,3.584638 0,1.981025 1.612264,3.585275 3.599986,3.585275 1.988415,0 3.599985,-1.60425 3.599985,-3.585275 0,-1.979 -1.61157,-3.584638 -3.599985,-3.584638 z m -22.282095,-21.558 v 0 h 0.0012 z m 5.014303,3.921713 0.237736,0.169562 0.184766,0.164225 -0.0934,-0.099 0.153615,0.108875 -0.198009,-0.157 -0.448863,-0.480237 -0.233134,-0.102875 0.433729,0.386575 -0.476107,-0.378025 c 0.140437,0.135887 0.233765,0.236162 0.439659,0.387887 z m 1.978513,0.734862 -0.04244,-0.0415 0.02453,0.02962 0.01519,0.0125 -0.0025,0.0025 0.231745,0.274425 -0.0616,-0.095 0.05229,0.05213 -0.0695,-0.07988 c -0.04308,-0.06663 -0.08936,-0.13915 -0.0934,-0.151725 l -0.0099,-0.0087 -0.0019,-0.0038 v 0.0025 l -0.04231,0.0075 z m -0.182748,-0.311987 -0.0019,-0.0062 -0.07549,-0.0805 0.04969,0.09562 0.03241,0.07325 0.0025,-0.0063 0.0159,0.031 -0.0105,-0.05013 0.0093,-0.03363" />
</svg>
