<?xml version="1.0" encoding="UTF-8"?>
<svg xmlns="http://www.w3.org/2000/svg" width="25" height="10" fill="white">
  <path d="M 13.862016,0 1.2047787,1.6788053 1.2658987,2.17984 H 0 V 8.8833493 H 2.08448 L 2.221344,10 10.651733,8.8833493 H 25 V 2.17984 H 16.553227 L 13.862357,0 Z m 7.321365,3.2390293 h 1.015126 c 0.03979,0 0.05973,0.01504 0.05973,0.0512 V 4.444576 c 0,0.054933 0.01099,0.06624 0.05461,0.06624 h 1.334336 c 0.03979,0 0.05344,0.018773 0.05344,0.06368 v 1.0255147 c 0,0.034987 -0.01867,0.060053 -0.05344,0.060053 H 22.32777 c -0.05333,0 -0.06944,0.010667 -0.06944,0.065173 V 7.070624 c 0,0.050027 -0.01067,0.069867 -0.04981,0.069867 h -1.019862 c -0.03349,0 -0.05461,-0.025067 -0.05461,-0.060053 V 5.7350507 c 0,-0.054933 -0.02005,-0.074987 -0.06485,-0.074987 h -1.323051 c -0.03979,0 -0.05973,-0.02496 -0.05973,-0.069867 v -1.020384 c 0,-0.04 0.01493,-0.05888 0.056,-0.05888 h 1.332874 c 0.03851,0 0.05867,-0.020053 0.05867,-0.06624 v -1.154346 c 0,-0.031147 0.02101,-0.0512 0.04949,-0.0512 z M 7.8738987,3.3729813 c 1.1653333,0 1.958176,0.7767147 1.958176,1.918528 0,1.21552 -0.8475734,2.082496 -2.0328,2.082496 -1.1740374,0 -2.0113174,-0.8067306 -2.0113174,-1.948544 0,-1.1755413 0.8870507,-2.05248 2.0859414,-2.05248 z m 4.5420483,0 c 1.164096,0 1.956736,0.7767147 1.956736,1.918528 0,1.21552 -0.847008,2.082496 -2.030987,2.082496 -1.174037,0 -2.012789,-0.8067306 -2.012789,-1.948544 0,-1.1755413 0.886912,-2.05248 2.08704,-2.05248 z M 3.1717013,3.5076587 H 5.297312 V 4.3296853 H 4.138048 V 4.951872 H 5.1928533 V 5.7749867 H 4.138048 V 7.245536 H 3.1717013 Z m 11.4360957,0 h 2.55184 v 0.8220266 h -0.80257 V 7.245536 h -0.96672 V 4.3296853 h -0.78255 z M 7.85424,4.269664 c -0.62864,0 -1.1046613,0.48864 -1.1046613,1.1320107 0,0.6221226 0.4412586,1.0767466 1.0413333,1.0767466 0.6186987,0 1.079552,-0.474528 1.079552,-1.11664 0,-0.633376 -0.4310613,-1.0921173 -1.016224,-1.0921173 z m 4.542048,0 c -0.629877,0 -1.105749,0.48864 -1.105749,1.1320107 0,0.6221226 0.441056,1.0767466 1.039872,1.0767466 0.619946,0 1.08064,-0.474528 1.08064,-1.11664 0,-0.633376 -0.430848,-1.0921173 -1.014763,-1.0921173 z" />
</svg>
