<?xml version="1.0" encoding="UTF-8"?>
<svg xmlns="http://www.w3.org/2000/svg" width="7" height="10" fill="white">
  <path d="M 6.78559,-2.1970235e-8 C 6.768172,3.3310348e-5 6.750135,0.00222213 6.731725,0.00555536 L 0.26824117,1.232718 C 0.12071967,1.2607171 0,1.3938797 0,1.5285978 V 8.4717531 C 0,8.6064822 0.12065783,8.7396004 0.26824583,8.7676107 L 6.7317297,9.9947733 C 6.8792803,10.022772 6.9999755,9.9354417 6.9999755,9.8007458 V 7.9876901 c -0.7163217,2.889e-4 -5.3022223,0.00111 -5.3042873,0 0,-1.1202993 0.073757,-1.5954293 1.163141,-2.255287 C 3.736383,5.2011748 3.986157,5.0529794 4.525696,4.7276337 4.9172865,4.4914742 5.317347,4.2242268 5.317347,3.825739 c 0,-0.4188762 -0.2928742,-0.6622021 -0.9018602,-0.6622021 -0.6987318,0 -0.8584228,0.3839883 -0.8584228,1.1164771 -0.025503,-0.00444 -1.7999893,0 -1.7999893,0 -0.099517,-1.7790569 1.2669801,-2.2805083 2.6937645,-2.2805083 1.4412615,0 2.2904315,0.4947627 2.5491106,1.2739723 V 4.4191653 C 6.8336042,4.9011062 6.3639473,5.3910246 5.099703,6.0177166 4.3631198,6.3827611 3.937906,6.5966212 3.937906,6.5966212 h 3.0620438 2.57e-5 V 0.19958274 c 0,-0.11788529 -0.092423,-0.199482765016 -0.214361,-0.19927170478 z M 6.9999498,6.5963101 V 7.987379 c 0,0 3.74e-5,0 5.02e-5,0 V 6.5963101 Z" />
</svg>
