<?xml version="1.0" encoding="UTF-8"?>
<svg xmlns="http://www.w3.org/2000/svg" width="7" height="10" fill="white">
  <path d="m 6.78575,2.893842e-7 c -0.01742,3.77999998e-5 -0.03555,0 -0.05399,0.005330000616 L 0.26824,1.2324925 C 0.120714,1.2605703 0,1.3936503 0,1.5283837 V 8.4717869 C 0,8.6064825 0.120714,8.7396014 0.268242,8.7676403 L 6.731759,9.994748 C 6.879314,10.022826 7,9.9354769 7,9.8007436 V 3.2228881 C 6.22734,3.7825559 5.362152,4.3520314 5.361411,4.3520314 c 0.83298,0.083189 1.430383,0.4330489 1.638162,1.0863344 v 1.1697211 c -0.270881,0.9422545 -1.21121,1.3802267 -2.61686,1.3802267 -1.816106,0 -2.58108,-0.7979044 -2.547869,-1.9153556 h 1.767997 c 0,0.3293934 0.147493,0.78852 0.86643,0.78852 0.593526,0 0.888712,-0.25416 0.888712,-0.8290977 0,-0.5302822 -0.24759,-0.7655189 -0.876286,-0.7655189 -0.35484,0 -0.748592,0.1810811 -0.748592,0.1810811 L 3.078355,4.5733058 c 0,0 1.748153,-1.2074533 1.753856,-1.2114533 H 2.032383 V 2.0022803 H 7 V 0.19942809 C 7,0.08154029 6.90769,-1.9191062e-4 6.78575,2.893842e-7 Z" />
</svg>
