<?xml version="1.0" encoding="UTF-8"?>
<svg xmlns="http://www.w3.org/2000/svg" width="7" height="10" fill="white">
  <path d="m 6.7853334,2.1144134e-8 c -0.0175,0 -0.035,0 -0.053667,0.01110444885587 L 0.26821666,1.2375398 C 0.12063334,1.2653023 0,1.3986731 0,1.5332656 V 8.4725501 C 0,8.6072536 0.12063334,8.7402913 0.26821666,8.7682759 L 6.7316667,9.9948218 C 6.87925,10.022584 7,9.9359653 7,9.8008177 V 6.8361191 H 5.9155834 v 1.153253 H 4.5038 l 2.333e-4,-1.1417038 h -2.86965 L 1.6336834,5.7379469 v -0.018879 -0.00111 c 0,-0.071072 0.023333,-0.2000009 0.1371999,-0.3279304 L 4.53145,2.0044498 H 5.9155834 V 5.5759252 H 7 V 0.20488704 C 7,0.08706315 6.9078331,0.00544149 6.7855667,0.0056636 Z M 4.5038,3.8118979 3.22245,5.3681509 3.1431167,5.4658742 c -0.022167,0.028873 -0.037334,0.063299 -0.037334,0.1010556 0,7.773e-4 1.3981332,0 1.3981332,0 z" />
</svg>
