<?xml version="1.0" encoding="UTF-8"?>
<svg xmlns="http://www.w3.org/2000/svg" width="100" height="100" fill="white">
  <path d="m 21.274552,2.0000396 -0.658486,1.5209412 c 0.774735,0.5999155 1.747385,1.4726325 2.756578,2.6563044 l -0.0143,0.016248 c 0,0 0.157077,0.1593216 0.185619,0.1896285 0.652406,0.7877606 1.26378,1.6463491 1.802013,2.5351071 1.391114,2.4542772 2.639859,5.9274722 3.358468,9.1334932 -15.945575,6.748226 -26.9246422,20.888597 -26.9246422,37.243355 0,9.609213 3.7909336,18.454106 10.1511712,25.484913 -0.343414,0.917202 -0.654926,1.755216 -0.925655,2.49501 C 7.5801792,90.657786 2.7238007,94.808626 0,96.695214 L 0.63201394,98 C 12.279523,96.384085 16.251161,97.59008 18.84448,97.996037 l 3.132989,-8.915831 c 7.861275,4.83383 17.480971,7.677671 27.870684,7.677671 10.474761,0 20.165248,-2.892067 28.061781,-7.798262 l 3.219103,9.04034 c 2.589238,-0.405999 6.581088,-1.61592 18.228588,0 L 100,96.69517 c -2.725842,-1.886588 -7.580192,-6.037428 -11.005325,-13.420174 -0.292308,-0.798754 -0.64005,-1.727758 -1.018767,-2.732271 6.232242,-6.992227 9.9403,-15.745788 9.9403,-25.247653 0,-16.340075 -10.9594,-30.469534 -26.881745,-37.224964 0.717009,-3.21115 1.968238,-6.692885 3.360597,-9.151879 0.542314,-0.888757 1.151738,-1.7473461 1.804145,-2.5351067 0.03058,-0.030317 0.187445,-0.1896285 0.187445,-0.1896285 l -0.01401,-0.016248 c 1.007153,-1.183672 1.981541,-2.0563889 2.756271,-2.6563044 L 78.470423,2 C 75.269555,3.3977718 68.523108,6.5810928 64.376245,10.295693 62.384364,8.457582 58.657531,6.5771893 55.901112,5.7126658 l -0.52186,1.2523305 c 0.346592,0.3555088 0.381398,0.4099998 0.581197,0.7533917 l 0.02221,0.028335 0.02039,0.028335 c 1.708349,2.262653 2.619379,4.557678 3.029528,6.816656 -2.97334,-0.496305 -6.043013,-0.759115 -9.184436,-0.759115 -3.123759,0 -6.176818,0.260104 -9.134532,0.750976 0.410401,-2.256359 1.320627,-4.548573 3.028311,-6.808517 L 43.76231,7.746723 43.78057,7.718388 C 43.984447,7.3749961 44.019344,7.3205051 44.363898,6.9649963 L 43.841733,5.7126658 C 41.085312,6.5771893 37.358481,8.457582 35.3666,10.295693 31.219736,6.5810928 24.471344,3.3977718 21.274548,2 Z M 49.839936,17.979438 c 3.257353,0 6.413344,0.444587 9.41661,1.273431 -0.169125,2.474395 -0.720597,4.839391 -1.222644,6.994227 0,0 -0.513805,2.302518 -0.52399,2.353015 -0.0061,0.01414 -6.565114,26.131572 -7.639547,30.205715 -1.072394,-4.074143 -7.632938,-30.191573 -7.634983,-30.205715 -0.01019,-0.0505 -0.52612,-2.353015 -0.52612,-2.353015 -0.504954,-2.159996 -1.055543,-4.531166 -1.22234,-7.012014 2.984109,-0.817556 6.118679,-1.255644 9.353014,-1.255644 z m -20.62763,6.624919 c -0.89194,10.906951 -7.680568,30.38028 -12.985649,44.709693 -1.706391,-4.328488 -2.64825,-9.060228 -2.64825,-14.018903 0,-12.722074 6.187828,-23.954858 15.633899,-30.69079 z m 41.324638,0.04914 c 9.407921,6.741354 15.566648,17.950463 15.566648,30.641649 0,4.82423 -0.890059,9.434753 -2.5098,13.667082 C 78.246775,54.68809 71.453981,35.480841 70.536944,24.653497 Z M 36.037568,49.069983 c 1.084628,4.110501 3.394489,12.638337 3.390418,12.622168 l 0.503603,2.222176 c 0.503577,2.169374 0.907094,3.906502 0.907094,5.522424 0,2.397625 -0.890882,4.534405 -3.655456,7.414785 l 0.446395,1.317145 c 1.425102,0.878658 4.049255,1.650246 5.93308,1.737102 0.597363,2.842001 3.953092,7.172682 6.305837,9.172387 2.356821,-1.999705 5.714471,-6.330386 6.309792,-9.172387 1.883825,-0.08686 4.507763,-0.858444 5.934906,-1.737102 l 0.448526,-1.317145 c -2.766615,-2.88038 -3.657586,-5.01716 -3.657586,-7.414785 0,-1.615922 0.403821,-3.35305 0.907397,-5.522424 l 0.503604,-2.222176 c -0.0041,0.01616 2.303752,-8.511667 3.390419,-12.622168 l 11.655588,32.732381 c -6.552909,6.680949 -15.568349,10.808492 -25.521249,10.808492 -9.872769,0 -18.822286,-4.061849 -25.361191,-10.648108 z" />
</svg>
