<?xml version="1.0" encoding="UTF-8"?>
<svg xmlns="http://www.w3.org/2000/svg" width="100" height="100" fill="white">
  <path d="M 57.02702,68.922435 C 80.0177,75.311825 97.16,78.325695 97.16,78.325695 87.2983,68.387975 78.47381,58.168975 70.83421,48.504515 84.17862,29.497075 94.69059,16.340555 94.69059,16.340555 80.53632,19.499095 67.156,23.360855 55.17197,27.327095 43.78632,10.855325 37.535,-0.73799983 37.535,-0.73799983 34.21186,11.626875 32.60814,24.007835 32.06957,35.637325 13.048299,43.059465 1.16,49.123365 1.16,49.123365 c 10.284574,4.66948 20.964097,8.74422 31.30452,12.25236 1.67554,22.36287 6.16356,37.88627 6.16356,37.88627 5.76862,-10.37171 12.10772,-20.68716 18.39894,-30.33956" />
</svg>
