<?xml version="1.0" encoding="UTF-8"?>
<svg xmlns="http://www.w3.org/2000/svg" width="100" height="100" fill="white">
  <path d="M 67.28234,48.04263 C 68.30748,57.11333 61.99038,65.29187 53.15429,66.31448 44.32974,67.33942 36.311,60.81243 35.30432,51.74172 34.27457,42.67801 40.60551,34.49714 49.42082,33.47919 58.2546,32.45658 66.25026,38.98124 67.28234,48.04263 Z" />
  <path d="M 96.65361,44.77913 C 93.52046,17.22693 70.09455,-2.691807 44.33436,0.29682 18.56032,3.27147 0.22086886,28.01674 3.3470949,55.57126 6.0415589,79.25665 23.73221,97.30255 45.05242,100 c 0,0 -0.41098,-4.75432 -0.97896,-9.47369 -0.51951,-4.7054 -1.17523,-9.34557 -1.17523,-9.34557 l -5.58518,0.59866 c 0,0 -6.43254,-6.19389 -11.44975,-13.39408 -4.7078,-6.73897 -7.98642,-14.50054 -7.98642,-14.50054 0,0 2.37584,-8.50233 5.51361,-16.35243 3.20705,-7.95724 7.15985,-15.26226 7.15985,-15.26226 0,0 7.50386,-1.79597 15.26401,-2.69046 8.2935,-0.95505 16.86638,-1.02028 16.86638,-1.02028 0,0 5.78144,5.76994 10.60701,12.66032 4.91098,7.05809 8.84301,15.23896 8.84301,15.23896 0,0 -1.06209,7.78953 -4.19986,15.63963 C 74.73309,70.0555 69.455,78.06167 69.455,78.06167 l -5.03106,0.83625 c 0,0 0.67419,4.47246 1.00436,9.0544 0.3648,4.8405 0.59569,9.60879 0.59569,9.60879 C 86.15513,90.0977 99.33884,68.46219 96.65361,44.77913 Z" />
</svg>
