<?xml version="1.0" encoding="UTF-8"?>
<svg xmlns="http://www.w3.org/2000/svg" width="100" height="100" fill="white">
  <path d="m 44.274624,93.70115 c -1.69825,-0.0989 -4.38755,-0.44271 -5.994164,-0.76625 -1.14427,-0.23045 -2.698769,-0.59981 -2.759639,-0.65574 -0.0268,-0.0245 0.1104,-0.67907 0.30478,-1.45444 1.288389,-5.13951 2.165899,-11.31758 2.563069,-18.04512 0.1143,-1.93596 0.11419,-7.91472 0,-9.72744 -0.11437,-1.81283 -0.33357,-4.21672 -0.51054,-5.59889 -0.0766,-0.59818 -0.12793,-1.09884 -0.1141,-1.11256 0.0349,-0.0346 0.92643,2.01611 1.52356,3.50421 3.622624,9.02819 6.080724,20.19644 7.010284,31.8507 0.0599,0.75037 0.10881,1.51957 0.10881,1.70934 V 93.75 l -0.87051,-0.0131 c -0.47878,-0.007 -1.0464,-0.0233 -1.26137,-0.0358 z" />
  <path d="m 49.932284,93.53145 c -0.0195,-0.0931 -0.0719,-0.53391 -0.11653,-0.97976 -0.37051,-3.70279 -1.83773,-11.44726 -3.45004,-18.21051 -0.17702,-0.74256 -0.36534,-1.5325 -0.41848,-1.75541 -0.0531,-0.22292 -0.0841,-0.40532 -0.0687,-0.40532 0.0154,0 0.11281,0.16653 0.21643,0.37007 0.10361,0.20354 0.50957,0.94102 0.90212,1.63885 3.42976,6.09703 7.99924,12.68349 11.65859,16.80474 0.61996,0.69822 0.76201,0.89696 0.70534,0.98684 -0.2409,0.38212 -6.18776,1.53677 -8.63352,1.67629 l -0.75991,0.0434 z" />
  <path d="M 29.386981,90.19883 C 19.899341,86.10643 12.191891,78.91716 7.5761412,69.85432 6.5159313,67.77267 5.8522813,66.22352 5.1452313,64.17998 2.4348514,56.34625 2.0736714,47.54545 4.1280513,39.39415 6.5357113,29.84112 12.277291,21.2163 20.175841,15.2877 c 0.56203,-0.42186 1.07951,-0.76702 1.14992,-0.76702 0.10132,0 0.15256,0.10936 0.24557,0.52407 0.0646,0.28823 0.10681,0.56818 0.0938,0.62209 -0.0131,0.0539 -0.42256,0.42868 -0.90985,0.83282 -7.53163,6.24661 -12.8679198,17.309 -14.0361597,29.09771 -0.70642,7.1284 0.3209199,14.29278 3.0386399,21.1907 2.9519498,7.49243 7.9207698,14.09649 13.9650798,18.56102 1.93727,1.43092 4.20631,2.76826 6.12617,3.61064 0.37129,0.16293 0.69972,0.31836 0.72981,0.34541 0.03,0.027 -0.005,0.30072 -0.0779,0.60816 -0.10485,0.44193 -0.16095,0.56244 -0.26791,0.57552 -0.0744,0.009 -0.45508,-0.1214 -0.84593,-0.28999 z" />
  <path d="M 61.389094,89.39732 C 47.598204,73.25391 36.704681,50.94654 29.281651,23.64897 28.011281,18.97724 25.610701,8.97338 25.731401,8.85408 25.782701,8.80338 47.894944,0 47.971054,0 c 0.10551,0 0.0883,0.22211 -0.13981,1.81442 -1.26086,8.79739 -1.72645,20.69811 -1.20862,30.89235 0.95822,18.86369 4.64284,35.25989 11.01702,49.0249 1.09799,2.37108 2.76806,5.53087 4.05158,7.66565 0.34382,0.57184 0.61633,1.03971 0.60559,1.03971 -0.0107,0 -0.41923,-0.46787 -0.90772,-1.03971 z" />
  <path d="m 67.198474,88.15231 c -0.14016,-0.2486 -0.25483,-0.49637 -0.25483,-0.55061 0,-0.0543 0.27981,-0.25242 0.62179,-0.44043 3.91429,-2.15184 7.705,-5.51227 10.73666,-9.51794 3.57231,-4.72002 6.23651,-10.50939 7.67592,-16.67996 1.3487,-5.78173 1.62284,-11.56087 0.82545,-17.40134 -0.95486,-6.99387 -3.43743,-13.77047 -7.04973,-19.24342 -2.37902,-3.6044 -5.27163,-6.68188 -8.52476,-9.06955 -0.44179,-0.32425 -0.80326,-0.60097 -0.80326,-0.61493 0,-0.1414 0.51798,-1.10029 0.59436,-1.10029 0.18656,0 2.59594,1.72947 3.90505,2.80305 7.17787,5.88654 12.30033,13.85806 14.61845,22.74911 2.09211,8.02416 1.82254,16.68367 -0.76361,24.53007 -3.04864,9.24949 -8.99453,17.08842 -17.14619,22.60509 -1.4687,0.99395 -3.84178,2.38316 -4.07096,2.38316 -0.0607,0 -0.22296,-0.20126 -0.36434,-0.45201 z" />
  <path d="m 55.612464,69.21239 c -0.11727,-0.32402 -0.902,-3.22637 -1.35113,-4.99716 -2.28739,-9.01868 -3.67714,-18.15031 -4.22671,-27.77256 -0.31658,-5.5428 -0.27705,-12.30418 0.10569,-18.08035 0.36413,-5.49536 1.1144,-11.26842 2.04956,-15.7707 0.32481,-1.56377 0.35647,-1.67527 0.47591,-1.67527 0.10284,0 14.37452,8.10373 14.43083,8.1941 0.0268,0.043 -0.13672,0.44519 -0.3633,0.89384 -1.27504,2.52473 -2.88325,6.24447 -4.16212,9.62682 -3.61374,9.55753 -6.0485,19.43271 -7.09943,28.79464 -0.3925,3.49648 -0.53763,6.16279 -0.53768,9.87823 -6e-5,3.79731 0.17694,6.6901 0.59676,9.75288 0.15156,1.10574 0.1729,1.40771 0.0816,1.15553 z" />
</svg>
