<?xml version="1.0" encoding="UTF-8" standalone="no"?>
<svg xmlns="http://www.w3.org/2000/svg" width="100" height="100" fill="white">
  <path d="M 72.153292,64.811615 75.010433,88 H 100 L 87.718625,12 49.9999,50.995321 12.303175,12 0,88 H 25.010325 L 27.86955,64.811615 49.9999,88 Z" />
  <path d="m 50.5741,28.052112 c 3.43385,-5.863653 7.072175,-11.686604 9.739783,-15.413729 h -15.88545 c -7.7672,10.819276 -14.9988,23.734293 -17.0484,32.5014 -0.51175,1.90532 -0.788666,3.894746 -0.788666,5.948605 0,12.746297 10.498958,23.059667 23.428033,23.059667 12.949833,0 23.426375,-10.31337 23.426375,-23.059667 C 73.445558,38.554129 63.258825,28.348512 50.574092,28.052112 Z m -0.554917,33.347364 c -5.761,0 -10.422766,-4.594537 -10.422766,-10.311088 0,-5.696032 4.661766,-10.311427 10.422766,-10.311427 5.77075,0 10.4236,4.615142 10.4236,10.311427 0,5.716551 -4.65285,10.311088 -10.4236,10.311088 z" />
</svg>
