<?xml version="1.0" encoding="UTF-8"?>
<svg xmlns="http://www.w3.org/2000/svg" width="220" height="100">
  <g fill="white">
    <path d="m 179.62993,81.241871 -3.3554,2.11395 1.38694,2.065117 -3.44772,7.309298 h 2.16694 L 172.96299,100 h -12.00237 l 5.63079,-11.965108 -0.60922,-1.060466 h -4.87385 l -2.71157,5.75581 h 2.13001 L 157.11831,100 h -14.10929 l 3.4108,-7.272087 h 2.14385 l 8.29848,-17.618597 h -2.14616 l 3.42925,-7.267438 h 22.117 l 3.24924,5.162789 z m -7.44002,-5.090695 -0.62077,-1.04186 h -4.86927 l -2.16693,4.604649 h 4.86464 l 1.61078,-1.046513 z" />
    <path d="M 152.69214,73.002341 142.41363,94.830236 134.25592,100 h -15.69236 l -3.30695,-5.169764 10.29004,-21.827895 8.15311,-5.162789 h 15.7016 z m -11.31928,3.162787 -0.68078,-1.055812 h -5.14154 l -1.65694,1.055812 -7.31539,15.513945 0.6669,1.04884 h 5.14618 l 1.67079,-1.04884 z" />
    <path d="m 121.83127,72.990713 -4.56234,9.679064 -8.0677,5.093019 H 99.049655 l -2.337721,4.962791 h 2.132328 l -3.4177,7.272087 H 81.31497 l 3.422321,-7.272087 h 2.146166 L 95.181944,75.10699 h -2.143856 l 3.42232,-7.267438 H 118.5774 Z m -11.31928,3.158137 -0.62538,-1.039534 h -4.87156 l -2.54539,5.399998 h 4.87386 l 1.57386,-0.993023 z" />
    <path d="M 189.74835,67.841878 H 220 l -4.33847,9.211624 h -8.01695 l 0.89307,-1.944186 h -2.22462 l -8.29849,17.618597 h 2.24539 L 196.83992,100 h -14.21775 l 3.42002,-7.272087 h 2.13462 l 8.30541,-17.618597 h -2.13693 l -0.92076,1.944186 h -8.01926 z" />
    <path d="M 94.26263,63.979089 91.414929,57.220953 H 73.96411 l -9.789274,7.011622 -6.355404,12.623253 2.893858,6.706972 h 11.667722 l 0.537702,1.334881 -2.079242,4.120929 -1.908456,1.372094 H 63.108673 L 62.531766,89.039541 64.56714,85.020938 H 53.670188 l -3.583866,7.176741 -0.560758,1.127906 2.87078,6.672089 h 17.450818 l 9.768506,-6.927903 6.258473,-12.423248 -2.85692,-6.779067 h -11.58927 l -0.623085,-1.262791 2.176152,-4.316276 1.980023,-1.430231 h 5.822321 l 0.533082,1.360463 -2.157716,4.218605 h 10.857748 z" />
    <path d="M 47.277868,64.306995 H 29.1324 L 24.445477,44.2791 c 0,0 -0.373847,-1.490697 -2.102321,-1.490697 -1.728474,0 -2.09308,1.869768 -2.09308,1.869768 L 18.76391,64.439554 H 0 L 7.200028,1.574472 c 0,0 28.47471,0.04185 29.836246,0.04185 1.356938,0 13.947759,0 13.947759,17.293012 0,17.293015 -10.368513,21.15115 -10.368513,21.15115 z M 32.960884,23.381437 c 0.369226,-7.090695 -4.20233,-8.960461 -5.679255,-8.960461 H 22.96162 l -1.359226,16.548828 h 5.305388 c 0,0.0022 5.681566,-0.493021 6.053102,-7.588367" />
    <path d="m 155.03593,18.037199 c 0,0 -11.5985,0 -12.96004,16.420921 -0.73848,14.92325 11.11387,15.295342 13.33389,13.309294 1.48384,-0.620929 4.32001,-3.483718 5.06077,-4.353484 0.74079,-0.872092 1.60618,-0.872092 1.60618,-0.872092 h 2.95847 c 0,0 4.56693,8.709298 5.06077,9.579067 0.49155,0.869766 0.49155,1.118603 0,2.609298 C 168.49212,58.841827 157.7521,68.79066 142.81896,65.058102 127.88122,61.327873 122.69581,45.651139 125.04274,29.602308 127.80275,10.669762 141.57973,0 154.17285,0 c 12.5908,0 17.52699,6.720927 19.25544,8.458135 1.73309,1.744186 1.11232,3.48372 1.11232,3.48372 l -7.53465,12.562785 h -2.95847 c -4.80694,-7.339532 -9.01156,-6.467441 -9.01156,-6.467441" />
    <path d="M 87.274924,32.09068 78.136433,1.988371 H 62.58483 L 55.670956,64.311593 H 60.3856 l 0.805376,-1.602326 0.376156,-0.744183 0.671551,-0.481397 9.784654,-7.004647 1.116917,-0.802326 1.296922,-11.63255 3.726954,11.804644 h 13.250799 0.475398 L 98.008043,40.676721 96.408796,64.311593 H 112.9504 l 5.80155,-62.19764 h -16.04543 z" />
  </g>
</svg>
