<?xml version="1.0" encoding="UTF-8"?>
<svg xmlns="http://www.w3.org/2000/svg" width="100" height="100">
  <path d="m 0,46.721471 h 8.652456 v 2.087353 H 5.5398355 v 8.621983 H 3.1189086 V 48.808824 H 0 Z"
        fill="white" />
  <path d="m 13.337107,51.470018 q 0.760862,0 1.087845,-0.322787 0.33327,-0.322786 0.33327,-1.061608 0,-0.731649 -0.33327,-1.047263 -0.326983,-0.315614 -1.087845,-0.315614 h -1.018676 v 2.747272 z m -1.018676,1.908026 v 4.052763 H 9.8975038 V 46.721471 H 13.59492 q 1.854996,0 2.716468,0.71013 0.867761,0.71013 0.867761,2.245159 0,1.061608 -0.452744,1.743047 -0.446458,0.681438 -1.351947,1.004224 0.496762,0.129115 0.886625,0.588189 0.396152,0.4519 0.798592,1.377222 l 1.314217,3.041365 h -2.57813 l -1.144438,-2.661194 q -0.345846,-0.80338 -0.704269,-1.097474 -0.352135,-0.294095 -0.943219,-0.294095 z"
        fill="white" />
  <path d="m 24.096083,48.529075 q -1.10671,0 -1.716658,0.932494 -0.609947,0.932495 -0.609947,2.62533 0,1.685662 0.609947,2.618156 0.609948,0.932495 1.716658,0.932495 1.112998,0 1.722945,-0.932495 0.609948,-0.932494 0.609948,-2.618156 0,-1.692835 -0.609948,-2.62533 -0.609947,-0.932494 -1.722945,-0.932494 z m 0,-2.001276 q 2.263724,0 3.546501,1.477645 1.282777,1.477644 1.282777,4.081455 0,2.596637 -1.282777,4.074282 -1.282777,1.477644 -3.546501,1.477644 -2.257436,0 -3.546501,-1.477644 -1.282777,-1.477645 -1.282777,-4.074282 0,-2.603811 1.282777,-4.081455 1.289065,-1.477645 3.546501,-1.477645 z"
        fill="white" />
  <path d="m 30.748916,46.721471 h 4.01811 q 1.792115,0 2.74791,0.910975 0.962082,0.903802 0.962082,2.582291 0,1.685662 -0.962082,2.596638 -0.955795,0.903802 -2.74791,0.903802 h -1.597183 v 3.71563 h -2.420927 z m 2.420927,2.001275 v 2.991155 h 1.33937 q 0.70427,0 1.087845,-0.387344 0.383575,-0.394516 0.383575,-1.11182 0,-0.717303 -0.383575,-1.104647 -0.383575,-0.387344 -1.087845,-0.387344 z"
        fill="white" />
  <path d="m 40.181098,46.721471 h 2.420927 v 4.081455 h 3.571653 v -4.081455 h 2.420927 v 10.709336 h -2.420927 v -4.540529 h -3.571653 v 4.540529 h -2.420927 z"
        fill="white" />
  <path d="m 50.971517,46.721471 h 6.533359 v 2.087353 h -4.112432 v 1.994102 h 3.867195 v 2.087352 h -3.867195 v 2.453177 h 4.250771 v 2.087352 h -6.671698 z"
        fill="white" />
  <path d="m 59.774887,46.721471 h 6.533359 v 2.087353 h -4.112432 v 1.994102 h 3.867195 v 2.087352 h -3.867195 v 2.453177 h 4.25077 v 2.087352 h -6.671697 z"
        fill="white" />
  <path d="m 76.495004,51.470018 q 0.760863,0 1.087845,-0.322787 0.333271,-0.322786 0.333271,-1.061608 0,-0.731649 -0.333271,-1.047263 -0.326982,-0.315614 -1.087845,-0.315614 h -1.018675 v 2.747272 z m -1.018675,1.908026 v 4.052763 H 73.055402 V 46.721471 h 3.697415 q 1.854996,0 2.716469,0.71013 0.867761,0.71013 0.867761,2.245159 0,1.061608 -0.452745,1.743047 -0.446457,0.681438 -1.351947,1.004224 0.496762,0.129115 0.886626,0.588189 0.396151,0.4519 0.798591,1.377222 l 1.314218,3.041365 h -2.57813 l -1.144439,-2.661194 q -0.345846,-0.80338 -0.704269,-1.097474 -0.352135,-0.294095 -0.943218,-0.294095 z"
        fill="white" />
  <path d="m 82.96548,46.721471 h 2.420927 v 8.621984 h 4.25077 v 2.087352 H 82.96548 Z"
        fill="white" />
  <path d="m 93.58612,48.808824 v 6.534631 h 0.867764 q 1.483997,0 2.263718,-0.839245 0.786023,-0.839244 0.786023,-2.43883 0,-1.592413 -0.779731,-2.424485 -0.779731,-0.832071 -2.27001,-0.832071 z m -2.420927,-2.087353 h 2.552976 q 2.137965,0 3.181794,0.351478 1.050112,0.344306 1.798402,1.176378 0.660251,0.724476 0.980948,1.671316 Q 100,50.867484 100,52.06538 q 0,1.212242 -0.320687,2.166255 -0.320697,0.946841 -0.980948,1.671316 -0.754573,0.832073 -1.810976,1.18355 -1.056413,0.344306 -3.16922,0.344306 h -2.552976 z"
        fill="white" />
  <path d="M 5.3002096e-8,29.514047 V 34.72234 C 15.099131,38.484726 32.065938,40.625072 50,40.625072 c 17.934063,0 34.888011,-2.179795 50,-5.902732 v -5.208293 c -14.951759,3.887248 -31.77619,6.249951 -50,6.249951 -18.22381,0 -35.06973,-2.38735 -49.999999946997903,-6.249951 z"
        fill="white" />
  <path d="M 38.541667,63.541562 C 24.734844,64.223514 11.889354,66.476548 5.3002092e-8,69.444294 v 5.555512 C 14.940552,71.028648 31.758324,68.402635 50,68.402635 c 18.241676,0 35.037952,2.623048 50,6.597171 V 69.097074 C 84.892998,65.377245 67.92611,63.541562 50,63.541562 c -3.804196,0 -7.753456,-0.182997 -11.458333,0 z"
        fill="white" />
  <path d="M 94.791667,29.861266 C 87.214484,13.903077 70.924011,2.778143 52.083333,2.778143 c -18.840676,0 -34.783929,11.124934 -42.361111,27.083123 m 2.430556,44.444101 c 8.278601,13.645899 22.803941,22.91649 39.930555,22.91649 17.126615,0 31.999177,-9.270591 40.277778,-22.91649"
        fill="none" stroke="white" stroke-width="5.55628586" />
</svg>
