<?xml version="1.0" encoding="UTF-8"?>
<svg xmlns="http://www.w3.org/2000/svg" width="100" height="100" fill="white">
  <path d="M 57.91825,74.47671 H 40.95057 c -0.044,-2.47578 -0.067,-3.98377 -0.067,-4.52398 -3e-5,-5.58177 0.9093,-10.17326 2.72814,-13.77447 1.81868,-3.60112 5.45619,-7.65244 10.91251,-12.15395 5.45622,-4.5014 8.71667,-7.44986 9.78136,-8.84538 1.64126,-2.20565 2.46192,-4.63643 2.46198,-7.29237 -6e-5,-3.69112 -1.45285,-6.85339 -4.35836,-9.48683 -2.90563,-2.63327 -6.8204,-3.94995 -11.7443,-3.95003 -4.74655,8e-5 -8.71676,1.37303 -11.91065,4.11883 -3.19394,2.74598 -5.38976,6.93233 -6.58745,12.55909 L 15,28.96691 C 15.488,20.90937 18.8704,14.06716 25.14734,8.44024 31.42425,2.81351 39.6641,1e-4 49.86692,0 60.60197,1e-4 69.14126,2.84727 75.48479,8.54153 81.82819,14.23596 84.99992,20.86436 85,28.42674 c -8e-5,4.18643 -1.16453,8.14771 -3.49335,11.88386 -2.32896,3.73627 -7.30836,8.82292 -14.93821,15.25996 -3.94809,3.33113 -6.39897,6.00949 -7.35266,8.03511 -0.9538,2.02569 -1.3863,5.64937 -1.29753,10.87104 z M 40.95057,100 V 81.02633 H 59.64829 V 100 Z" />
</svg>
