<?xml version="1.0" encoding="UTF-8"?>
<svg xmlns="http://www.w3.org/2000/svg" width="58" height="10" fill="white">
  <path d="m 15.549514,9.99235 c -0.365654,-0.028 -0.743833,-0.1044 -1.105137,-0.2242 -1.077346,-0.357 -1.976516,-1.0853 -2.650856,-2.1472 -0.04997,-0.079 -0.09526,-0.143 -0.100645,-0.1428 -0.0054,10e-5 -0.02768,0.069 -0.04955,0.1539 -0.137636,0.5319 -0.385328,1.3088 -0.648381,2.0334 -0.05214,0.1437 -0.09975,0.2761 -0.105763,0.2945 l -0.01094,0.033 H 9.409135 c -1.390348,0 -1.469367,0 -1.474117,-0.018 -0.0029,-0.011 -0.255123,-1.358 -0.560814,-2.996 -0.305687,-1.6378 -0.558736,-2.9746 -0.562332,-2.9706 -0.0037,0 -0.255835,1.3394 -0.560522,2.9678 -0.304695,1.6283 -0.556585,2.9732 -0.559761,2.9886 l -0.0058,0.028 H 4.1865584 2.6872805 L 1.3460057,5.01165 C 0.60830765,2.27185 0.00262105,0.01185 3.9647717e-5,0.00475 c -0.0037399977,-0.011 0.255947002283,0 1.276613652283,0 h 1.2813089 l 0.015263,0.053 c 0.00839,0.03 0.3619235,1.3769 0.7856135,2.9938 0.9251567,3.5309 0.8229463,3.1477 0.8330422,3.1237 0.00455,-0.011 0.3351791,-1.3957 0.6905681,-3.0775 0.355388,-1.6818 0.612352,-3.0839 0.615257,-3.0938 H 8.18426 c 0.211589,1.0221 0.418439,2.0453 0.626738,3.0681 0.338405,1.6621 0.618983,3.031 0.623512,3.042 0.0062,0.015 0.0152,0 0.03637,-0.082 0.01548,-0.056 0.394345,-1.4342 0.841931,-3.0625 l 0.813797,-2.9605 h 2.322372 c 2.44657,0 2.406666,0 2.823205,0.047 1.084221,0.1244 2.095609,0.4772 2.837235,0.9895 0.404758,0.2798 0.788759,0.6565 1.062839,1.0431 0.443115,0.6249 0.711205,1.3951 0.803881,2.31 0.02257,0.2226 0.0315,0.7254 0.01634,0.9169 -0.07143,0.9001 -0.333088,1.7843 -0.733976,2.4802 -0.640662,1.1122 -1.641447,1.8175 -2.948496,2.078 -0.348274,0.069 -0.657016,0.1011 -1.146247,0.118 -0.333628,0.011 -0.455211,0.011 -0.614231,0 z m 0.856903,-1.2532 c 0.919042,-0.1044 1.62861,-0.4129 2.182702,-0.9479 0.431877,-0.4169 0.736991,-0.9419 0.920329,-1.5832 0.199762,-0.6989 0.242986,-1.554 0.113148,-2.2383 -0.13434,-0.7081 -0.444298,-1.3051 -0.909535,-1.752 -0.148753,-0.1428 -0.245245,-0.2194 -0.433384,-0.344 -0.569768,-0.3772 -1.29089,-0.5673 -2.152074,-0.5673 -0.768209,0 -1.457813,0.1439 -2.039495,0.4253 -0.110238,0.053 -0.214878,0.1111 -0.313816,0.1721 -0.68798,0.427 -1.099885,1.0452 -1.19349,1.7993 -0.02898,0.2336 -0.01797,0.5895 0.02514,0.8095 0.158593,0.8102 0.757223,1.4126 1.669191,1.6797 0.551654,0.1615 1.27346,0.1994 1.842165,0.097 0.382708,-0.069 0.781265,-0.2259 1.086201,-0.4271 0.084,-0.056 0.134567,-0.083 0.140946,-0.077 0.0064,0.011 -0.0043,0.063 -0.02963,0.1601 -0.15535,0.5889 -0.407552,0.9611 -0.779471,1.1506 -0.051,0.027 -0.125375,0.059 -0.165251,0.073 -0.342732,0.1215 -0.856252,0.1067 -1.135701,-0.031 -0.144185,-0.071 -0.272676,-0.1934 -0.328733,-0.3119 l -0.03269,-0.069 -1.112684,-2e-4 c -0.895048,-2e-4 -1.112688,0 -1.112688,0.013 0,0.011 0.01364,0.069 0.03031,0.1358 0.08745,0.354 0.238235,0.6471 0.469618,0.9129 0.467631,0.5375 1.242675,0.8586 2.257259,0.9355 0.18306,0.014 0.837041,0 1.001675,-0.014 z m -0.511164,-3.7959 c -0.336312,-0.031 -0.644989,-0.1747 -0.84886,-0.3943 -0.291462,-0.3138 -0.318958,-0.7385 -0.0703,-1.0863 0.0541,-0.076 0.186843,-0.2027 0.270994,-0.2594 0.140164,-0.094 0.335448,-0.1747 0.519081,-0.2136 0.123654,-0.027 0.434088,-0.027 0.55524,2e-4 0.252707,0.054 0.450434,0.1554 0.615198,0.3133 0.181159,0.1736 0.280143,0.3854 0.292936,0.6265 0.01609,0.3031 -0.117098,0.5734 -0.378349,0.7679 -0.235152,0.1751 -0.628748,0.2762 -0.955946,0.2457 z" />
  <path d="M 37.960102,9.946245 C 37.807882,9.8762384 37.622225,9.6514174 37.59644,9.5060038 37.5844,9.4399977 37.57964,7.9090546 37.58601,6.105186 l 0.01043,-3.2797065 0.09705,-0.1488139 c 0.266055,-0.4082381 0.911808,-0.3662342 1.121162,0.072007 0.0759,0.1591148 0.07651,0.1857173 0.07651,3.4539227 0,3.6953454 0.0201,3.4221198 -0.268786,3.659542 -0.106498,0.087008 -0.175816,0.1124105 -0.342616,0.1212114 -0.12465,0.013001 -0.253665,-0.013001 -0.319216,-0.039004 z m 1.915265,0.012001 C 39.758962,9.911242 39.591822,9.7506266 39.525686,9.6220146 c -0.07845,-0.1524143 -0.07485,-5.1265791 0.0045,-5.4657108 0.18834,-0.8110758 0.836866,-1.4755379 1.648804,-1.6891578 0.28143,-0.074007 0.840708,-0.075007 1.123607,0 0.342183,0.089008 0.710613,0.2910272 0.973129,0.53525 0.214006,0.1991186 0.413386,0.4993466 1.814736,2.7320553 1.075517,1.7137601 1.626514,2.5584391 1.739133,2.6659491 0.385953,0.3684345 0.953193,0.3461324 1.332079,-0.053005 0.278732,-0.2932274 0.264047,-0.1396131 0.284417,-2.974578 0.01784,-2.4754313 0.01994,-2.5395373 0.0933,-2.6660492 0.201091,-0.3476324 0.751547,-0.4038377 1.026453,-0.1050098 0.196455,0.21372 0.193215,0.1664156 0.193215,2.8082625 0,2.087295 -0.0089,2.4882325 -0.05775,2.7303551 C 49.520197,9.0305594 48.886581,9.7037223 48.017433,9.9294434 47.275146,10.122161 46.481509,9.9134419 45.922862,9.3783919 45.653142,9.1200678 45.691496,9.1782732 43.723701,6.0391799 43.066234,4.9902818 42.486333,4.0862974 42.435047,4.0301921 42.177465,3.7481658 41.70906,3.6620577 41.351669,3.8310735 c -0.218761,0.1037097 -0.461341,0.3696346 -0.520981,0.5717534 -0.0309,0.1050099 -0.04335,0.8264773 -0.04455,2.5847416 -0.0015,2.5736405 -0.0045,2.6135442 -0.168151,2.7977614 -0.166035,0.1864175 -0.511141,0.2675251 -0.741977,0.1742163 z M 52.133748,9.9412445 C 51.42141,9.7466263 50.835913,9.1710725 50.592313,8.4259029 l -0.08475,-0.2592242 -0.01204,-2.5734405 c -0.006,-1.4153323 -0.0015,-2.6449472 0.01043,-2.7323553 0.03374,-0.2335219 0.192165,-0.3999374 0.430186,-0.4520423 0.134401,-0.030003 1.134407,-0.039004 3.435309,-0.030003 3.04324,0.013001 3.253195,0.016002 3.36583,0.077007 0.06599,0.036003 0.152206,0.1200112 0.191326,0.1851173 0.06929,0.1150107 0.07111,0.2120198 0.07126,3.5547322 0,3.7931545 0.01349,3.5799345 -0.229575,3.7302486 -0.113102,0.070006 -0.200611,0.072007 -2.778937,0.070006 -2.199531,0 -2.696199,-0.013001 -2.857824,-0.056005 z m 2.904607,-3.4686241 -0.01043,-2.5271362 -0.08761,-0.1790167 c -0.05461,-0.1113104 -0.14295,-0.2163202 -0.23424,-0.277726 -0.143401,-0.096009 -0.161191,-0.099009 -0.805952,-0.1088101 l -0.659252,-0.013001 -0.187246,0.5106478 -0.187276,0.5105477 0.615782,0.012001 0.615767,0.013001 v 2.2949145 2.2947144 h 0.475292 0.475276 L 55.038036,6.4756207 Z M 25.26975,9.9231428 c -1.651294,-0.224521 -2.961278,-1.5227423 -3.210639,-3.1820973 -0.0789,-0.5248491 -0.07875,-6.43330124 6e-5,-6.58831573 0.08715,-0.17081596 0.272866,-0.20271894 0.433741,-0.07400691 l 0.09585,0.0760071 0.009,1.97468454 0.009,1.9745845 0.237506,-0.2992279 c 0.462456,-0.5826545 1.151948,-1.0412974 1.91413,-1.273119 0.302521,-0.092009 0.378181,-0.1000094 0.966423,-0.1000094 0.538726,3.001e-4 0.682322,0.013001 0.921287,0.080008 0.678032,0.1897177 1.212304,0.5049472 1.7054,1.0062941 0.767117,0.7800729 1.130898,1.7330619 1.081668,2.8340648 -0.045,1.0066941 -0.426586,1.8442723 -1.165698,2.5583391 -0.505247,0.4880456 -1.032063,0.7773726 -1.71008,0.9390877 -0.367906,0.088008 -0.941703,0.1200113 -1.288444,0.074007 z m 0.910413,-0.6109571 c 0.471526,-0.051005 1.092528,-0.3257304 1.522159,-0.6737629 0.467671,-0.3788354 0.890552,-1.0426975 1.055103,-1.6566548 0.06375,-0.2379223 0.07935,-0.3983373 0.07965,-0.8145762 2.85e-4,-0.4567427 -0.0105,-0.557152 -0.0972,-0.8441789 C 28.454724,4.370824 27.891878,3.708062 27.01322,3.2899229 25.472356,2.5569544 23.589326,3.2769217 22.875789,4.8767712 c -0.269041,0.6026564 -0.342421,1.444735 -0.180166,2.0679933 0.339601,1.3043219 1.407454,2.2418095 2.719913,2.3876231 0.252255,0.029003 0.338941,0.026002 0.764552,-0.020002 z M 33.001057,9.924643 C 32.419325,9.849636 31.705308,9.5590088 31.250581,9.2111763 29.423037,7.8132457 29.225711,5.1509969 30.828421,3.515444 c 0.468841,-0.4784447 1.051142,-0.8178764 1.719291,-1.0022936 0.26241,-0.072007 0.395671,-0.085008 0.909212,-0.085008 0.513541,0 0.646802,0.013001 0.909213,0.085008 1.462474,0.4036377 2.518822,1.5767473 2.756858,3.0615861 0.08371,0.5224488 0.0741,0.6700626 -0.0528,0.7989746 l -0.106647,0.1087102 h -2.028607 c -2.141885,0 -2.195526,0 -2.257626,-0.1682157 -0.04649,-0.1238116 -0.021,-0.2647248 0.0618,-0.3437322 0.0843,-0.080007 0.08475,-0.080007 1.95107,-0.080007 h 1.866651 V 5.7854562 c 0,-0.191818 -0.144453,-0.6826638 -0.290072,-0.9850921 C 35.710818,3.6452562 34.527719,2.93699 33.2824,3.0136971 c -0.466876,0.029003 -0.751276,0.1050098 -1.192954,0.3224302 -0.630572,0.3093289 -1.108533,0.7872735 -1.421269,1.4210328 -0.240961,0.4883456 -0.320386,0.8290774 -0.324751,1.3926301 -0.0045,0.5695532 0.0618,0.8704814 0.305192,1.3886298 0.198301,0.4219394 0.276421,0.53585 0.593791,0.8649808 1.350139,1.4004309 3.596875,1.2208141 4.757159,-0.3802355 0.194716,-0.2686251 0.20973,-0.2797262 0.378392,-0.2805262 0.16329,-7.001e-4 0.2664,0.1050098 0.2664,0.2731255 0,0.2538237 -0.644703,0.9873923 -1.171818,1.3332246 -0.695282,0.4563426 -1.658315,0.6810638 -2.471391,0.5768539 z" />
</svg>
