<?xml version="1.0" encoding="UTF-8"?>
<svg xmlns="http://www.w3.org/2000/svg" width="100" height="100">
  <g opacity="0.2">
    <path d="m 0,50 0,-50 50,0 50,0 0,50 0,50 -50,0 -50,0 0,-50 z m 39.550781,19.02477 c 0.644531,-0.15222 1.918946,-0.64291 2.832031,-1.09042 1.32801,-0.65087 1.997692,-1.1511 3.347245,-2.50033 1.463504,-1.46315 1.817045,-1.95699 2.667701,-3.72637 1.238916,-2.57696 1.493873,-3.66209 1.488797,-6.33656 -0.0072,-3.80781 -1.371953,-7.07196 -4.082969,-9.76562 -1.755346,-1.74411 -3.091299,-2.61048 -5.210891,-3.37928 -1.291996,-0.46862 -1.700802,-0.51996 -4.166914,-0.52329 -2.395232,-0.003 -2.891834,0.0537 -4.003906,0.4593 -1.650707,0.60199 -3.692402,1.95977 -4.680736,3.11281 l -0.785493,0.9164 -0.0014,-7.47071 -0.0012,-7.4707 -2.148437,0 -2.148438,0 0,18.84766 0,18.84765 2.148438,0 2.148437,0 0,-2.03269 0,-2.0327 1.220704,1.21377 c 2.964978,2.94815 6.953593,3.97575 11.376953,2.93108 z m -6.240363,-4.20314 c -5.400484,-1.85705 -7.918131,-8.34835 -5.35058,-13.7955 0.706988,-1.49991 2.395191,-3.35971 3.756932,-4.13882 2.975402,-1.70235 6.759566,-1.54718 9.670302,0.39653 1.859012,1.2414 3.230928,3.21596 3.854852,5.54819 0.435771,1.62892 0.337045,4.46253 -0.209428,6.01097 -1.112351,3.15185 -3.182152,5.19639 -6.15193,6.07686 -1.518543,0.45021 -4.108035,0.40455 -5.570148,-0.0982 z m 36.758641,4.19566 c 2.122332,-0.4408 3.898746,-1.41409 5.284298,-2.89525 1.487938,-1.59061 2.030338,-2.92125 2.037038,-4.99733 0.01461,-4.52474 -2.244561,-6.49387 -9.519301,-8.29721 -5.421535,-1.34395 -6.805776,-2.23831 -6.446137,-4.16485 0.187992,-1.00704 1.543498,-2.26556 2.861832,-2.65707 2.166397,-0.64335 5.391141,-0.20055 6.89544,0.94683 0.364349,0.27791 0.899316,0.98941 1.188814,1.58112 0.324021,0.66228 0.648939,1.07289 0.845236,1.06815 0.509328,-0.0123 3.742567,-0.71417 3.868082,-0.83969 0.190948,-0.19094 -0.518091,-2.12374 -1.134562,-3.09274 -1.20367,-1.89199 -3.131889,-3.21794 -5.487072,-3.77323 -1.630829,-0.3845 -4.946149,-0.37751 -6.469692,0.0137 -5.046125,1.29553 -7.895422,5.3647 -6.681168,9.54159 0.764049,2.62823 3.062983,4.04167 8.891129,5.46648 5.540408,1.35446 6.841508,2.16701 6.843149,4.2736 0.0012,1.51035 -0.770872,2.56723 -2.538333,3.47481 -0.713324,0.36629 -1.273025,0.46635 -2.970875,0.53111 -2.856119,0.10895 -4.480925,-0.36311 -5.796197,-1.684 -0.843388,-0.847 -1.389178,-1.9638 -1.389178,-2.84257 0,-0.17553 -0.07003,-0.31914 -0.155628,-0.31914 -0.196825,0 -3.769477,0.76446 -4.077551,0.87249 -0.305475,0.10713 0.09109,1.83504 0.722383,3.14759 0.935931,1.94592 3.469421,3.92551 5.859474,4.57841 2.064938,0.56408 4.854153,0.58953 7.368819,0.0672 z" />
  </g>
</svg>
