<?xml version="1.0" encoding="UTF-8"?>
<svg xmlns="http://www.w3.org/2000/svg" width="100" height="100">
  <g transform="translate(0,12)" opacity="0.2">
    <path d="m 93.628875,0 c -1.248303,0 -2.58585,0.35608 -3.655822,1.15796 L 49.849423,30.47137 9.9925065,1.51484 C 8.9225337,0.71296 7.5852431,0.35611 6.2477771,0.35611 4.2861605,0.35611 2.3242751,1.24722 1.0759737,2.94008 0.28407095,4.0551 -0.05019501,5.35886 0.00605107,6.65211 v 63.02202 c 0,3.4748 2.76431493,6.23703 6.24172603,6.23703 H 12.489504 V 18.80452 L 49.849423,45.97434 77.407591,25.8901 87.387149,18.64981 V 76 h 6.241726 c 3.477413,0 6.241729,-2.76224 6.241729,-6.23703 V 7.5673 C 100.21282,5.90971 99.883004,4.13045 98.800679,2.67279 98.253028,1.91142 97.568799,1.31439 96.811818,0.87919 95.846909,0.29395 94.753046,0 93.628875,0 Z" />
  </g>
</svg>
