<?xml version="1.0" encoding="UTF-8"?>
<svg xmlns="http://www.w3.org/2000/svg" width="100" height="100" opacity="0.2">
  <path d="m 93.628875,12 c -1.248303,0 -2.58585,0.35608 -3.655822,1.15796 L 49.849423,42.47137 9.9925065,13.51484 C 8.9225337,12.71296 7.5852431,12.35611 6.2477771,12.35611 c -1.9616166,0 -3.923502,0.89111 -5.1718034,2.58397 -0.79190275,1.11502 -1.12616871,2.41878 -1.06992263,3.71203 v 63.02202 c 0,3.4748 2.76431493,6.23703 6.24172603,6.23703 H 12.489504 V 30.80452 L 49.849423,57.97434 77.407591,37.8901 87.387149,30.64981 V 88 h 6.241726 c 3.477413,0 6.241729,-2.76224 6.241729,-6.23703 V 19.5673 c 0.342216,-1.65759 0.0124,-3.43685 -1.069925,-4.89451 -0.547651,-0.76137 -1.23188,-1.3584 -1.988861,-1.7936 C 95.846909,12.29395 94.753046,12 93.628875,12 Z" />
</svg>
