<?xml version="1.0" encoding="UTF-8"?>
<svg xmlns="http://www.w3.org/2000/svg" width="30" height="10">
  <path d="m 17.81622,0.49972582 c -0.01493,3e-5 -0.03039,0.002 -0.04617,0.005 L 12.229921,1.6092058 C 12.103474,1.6344058 12,1.7542558 12,1.8755058 v 6.2490301 c 0,0.1212599 0.103421,0.2410699 0.229925,0.2662799 l 5.540129,1.10448 c 0.126472,0.0252 0.229925,-0.0534 0.229925,-0.17463 V 7.6888659 c -0.61399,2.6e-4 -4.544762,0.001 -4.546532,0 0,-1.0083001 0.06322,-1.4359301 0.996978,-2.0298201 0.752189,-0.47812 0.966281,-0.6115 1.428743,-0.90432 0.335649,-0.21255 0.678558,-0.45308 0.678558,-0.81173 0,-0.377 -0.251035,-0.596 -0.773023,-0.596 -0.598913,0 -0.735791,0.3456 -0.735791,1.00486 -0.02186,-0.004 -1.542848,0 -1.542848,0 -0.0853,-1.6012 1.085983,-2.05252 2.308941,-2.05252 1.235367,0 1.963227,0.4453 2.184952,1.14661 v 1.03115 c -0.142582,0.43376 -0.545145,0.8747 -1.628783,1.43874 -0.631357,0.32855 -0.995826,0.52103 -0.995826,0.52103 h 2.624609 2.2e-5 V 0.67935582 c 0,-0.1061 -0.07922,-0.17954 -0.183738,-0.17935 z m 0.183737,5.93685998 v 1.2520001 c 0,0 3.2e-5,0 4.3e-5,0 V 6.4365858 Z"
        fill="white" />
</svg>
