<?xml version="1.0" encoding="UTF-8"?>
<svg xmlns="http://www.w3.org/2000/svg" width="30" height="10">
  <path d="m 17.816,0.5 c -0.015,0 -0.031,0 -0.046,0.01 L 12.2299,1.613791 C 12.1034,1.638767 12,1.758801 12,1.879935 v 6.2453556 c 0,0.1212332 0.1034,0.2409672 0.2299,0.2661533 L 17.77,9.4953397 C 17.8965,9.5203257 18,9.4423687 18,9.320736 V 7.4320774 c -0.4084,0.3700959 -1.0191,0.5850774 -1.8926,0.5850774 -1.656,0 -2.5367,-0.7807695 -2.5367,-2.4768342 0,-1.9743113 1.1293,-2.5482948 2.5845,-2.5482948 0.8104,0 1.4233,0.1847981 1.8448,0.5613905 V 0.684498 C 18,0.578457 17.921,0.504997 17.8162,0.505197 Z m 0.1838,3.0482191 v 3.8785612 c 0,0 0,0 0,0 V 3.5482191 c 0,0 0,0 0,0 z M 15.5471,1.982882 h 0.9941 l 1.2199,0.9724641 H 16.8512 L 16.0443,2.44023 15.237,2.9741357 h -0.9096 z m 0.6558,2.1074382 c -0.7464,0 -1.0527,0.2781466 -1.0527,1.3910329 0,1.0408261 0.2676,1.4357083 0.9186,1.4357083 0.881,0 1.0436,-0.5026228 1.0436,-1.5254588 0,-0.8884101 -0.2587,-1.3012824 -0.9095,-1.3012824 z"
        fill="white" />
</svg>
