<?xml version="1.0" encoding="UTF-8"?>
<svg xmlns="http://www.w3.org/2000/svg" width="30" height="10">
  <path d="m 17.816,0.50473706 c -0.015,0 -0.03,0 -0.046,0 L 12.2299,1.6092371 c -0.1265,0.025 -0.2299,0.145 -0.2299,0.2663 V 8.124537 c 0,0.1213 0.1034,0.2411 0.2299,0.2663 L 17.77,9.4953371 c 0.1265,0.025 0.23,-0.053 0.23,-0.1747 v -5.92 c -0.6623,0.5037 -1.4037,1.0161 -1.4043,1.0161 0.7139,0.075 1.2258,0.3897 1.404,0.9776 h -10e-5 v 1.0529 C 17.7675,7.295237 16.9613,7.689337 15.7565,7.689337 c -1.5566,0 -2.2121,-0.718 -2.1837,-1.7236999 h 1.5153 c 0,0.2964 0.1264,0.7096 0.7425,0.7096 0.5088,0 0.7618,-0.2286 0.7618,-0.746 0,-0.4773 -0.2122,-0.6891 -0.751,-0.6891 -0.3042,0 -0.6415,0.163 -0.6415,0.163 l -0.5613,-0.7871 c 0,0 1.4983,-1.0868 1.5032,-1.0904 h -2.3997 l 10e-5,-1.2236 H 18 V 0.67933706 c 0,-0.1061 -0.079,-0.1795 -0.1838,-0.1793 z"
        fill="white" />
</svg>
