<?xml version="1.0" encoding="UTF-8"?>
<svg xmlns="http://www.w3.org/2000/svg" width="30" height="10">
  <path d="m 17.816,0.50000004 c -0.015,0 -0.03,0 -0.046,0.009994 L 12.2299,1.6137859 C 12.1034,1.6387721 12,1.7588059 12,1.8799391 v 6.2453561 c 0,0.1212331 0.1034,0.2409671 0.2299,0.2661532 L 17.77,9.4953397 C 17.8965,9.5203259 18,9.4423689 18,9.320736 V 6.6525073 H 17.0705 V 7.690435 h -1.2101 l 2e-4,-1.0275334 h -2.4597 l -6e-4,-0.9987493 v -0.016991 -9.994e-4 c 0,-0.063965 0.02,-0.1800008 0.1176,-0.2951373 l 2.3662,-3.0470197 h 1.1864 V 5.5183328 H 18 V 0.68439835 C 18,0.57835683 17.921,0.50489734 17.8162,0.50509723 Z m -1.9556,3.43070816 -1.0983,1.4006277 -0.068,0.087951 c -0.019,0.025986 -0.032,0.056969 -0.032,0.09095 0,6.996e-4 1.1984,0 1.1984,0 z"
        fill="white" />
</svg>
