<?xml version="1.0" encoding="UTF-8"?>
<svg xmlns="http://www.w3.org/2000/svg" width="30" height="10" fill="white">
  <path d="m 7.5827576,4.5191859 c -0.2053974,-0.156437 -0.4073925,-0.248541 -0.632929,-0.278336 -0.2294875,-0.03031 -0.4515669,-0.0026 -0.6666222,0.08759 -0.2122568,0.08898 -0.3888996,0.229391 -0.5326723,0.415104 -0.4245135,0.548342 -0.4386163,1.374212 -0.034955,1.938754 0.1876727,0.262484 0.435269,0.433558 0.7346673,0.514786 0.4011916,0.1088242 0.7781833,0.05184 1.1236218,-0.231937 0.00477,0.08359 0.00845,0.147759 0.012237,0.213366 0.2340421,0 0.458975,0 0.6885174,0 0,-0.964025 0,-1.920703 0,-2.880504 -0.2333288,0 -0.4584812,0 -0.6918099,0 -5.49e-5,0.0678 -5.49e-5,0.129882 -5.49e-5,0.221176 z m -0.11639,1.763282 c -0.30527,0.322305 -0.8122607,0.335728 -1.099367,0.02707 -0.2946791,-0.316926 -0.278491,-0.869897 0.035504,-1.177334 0.3364939,-0.329423 0.8803607,-0.198672 1.1320177,0.153139 0.017725,0.02477 0.019481,0.06607 0.020139,0.09985 0.0023,0.119469 9.329e-4,0.239053 9.329e-4,0.358638 0,0.101939 -0.00598,0.204458 0.00176,0.30576 0.00746,0.09754 -0.028754,0.167141 -0.090983,0.232863 z" />
  <ellipse cx="28.508375" cy="4.7472472" rx="0.49162567" ry="0.51831603" />
  <ellipse cx="28.508375" cy="6.7259765" rx="0.49162567" ry="0.51831603" />
  <path d="m 18.399894,2.7959979 c -0.04911,-0.01851 -0.100201,-0.03084 -0.150412,-0.046 -0.01339,0 -0.02667,0 -0.04006,0 -0.02491,0.0075 -0.04944,0.01759 -0.07485,0.02216 -0.236786,0.04252 -0.398558,0.253749 -0.387912,0.507845 0.01081,0.259939 0.18652,0.444263 0.45014,0.472379 0.227567,0.02419 0.446463,-0.148222 0.498211,-0.392367 0.05087,-0.240443 -0.07403,-0.480595 -0.295119,-0.564021 z" >
  <path d="m 25.967934,4.2289319 c -0.823181,-0.0024 -1.473286,0.667926 -1.468896,1.51474 0.0045,0.847274 0.638801,1.500506 1.457207,1.50068 0.833992,2.89e-4 1.474109,-0.652827 1.474329,-1.504152 2.19e-4,-0.844903 -0.642368,-1.508839 -1.46264,-1.511268 z m -0.0027,2.302772 c -0.417654,5.8e-5 -0.729619,-0.337001 -0.730168,-0.788958 -5.48e-4,-0.455313 0.315587,-0.79943 0.733954,-0.798967 0.410575,4.62e-4 0.726272,0.347529 0.725449,0.79752 -9.33e-4,0.452825 -0.312349,0.790405 -0.729235,0.790405 z" />
  <path d="m 15.59309,4.3594509 c -0.472474,0.236334 -0.705968,0.661274 -0.761117,1.194169 -0.0478,0.462256 0.04423,0.893153 0.360858,1.237965 0.38665,0.421005 0.869002,0.5216712 1.398107,0.41736 0.312898,-0.06168 0.581182,-0.217185 0.77972,-0.458032 -0.141084,-0.150189 -0.277833,-0.295751 -0.414636,-0.441312 -0.299783,0.287651 -0.641764,0.420427 -1.042517,0.219499 -0.227951,-0.114262 -0.383521,-0.380565 -0.363108,-0.595609 0.625631,0 1.251865,0 1.891324,0 0.0056,-0.08233 0.01663,-0.152099 0.0135,-0.221177 -0.0051,-0.111948 -0.01163,-0.224995 -0.03117,-0.334918 -0.162265,-0.913808 -1.04762,-1.409734 -1.830961,-1.017945 z m -0.0135,1.002266 c 0.0086,-0.270757 0.286612,-0.506976 0.59062,-0.504604 0.273058,0.0021 0.517417,0.234772 0.522795,0.504604 -0.371175,0 -0.74224,0 -1.113415,0 z" />
  <path d="m 21.743761,4.8155159 c -0.373864,-0.60232 -1.150291,-0.769346 -1.718138,-0.369631 -0.0281,0.01973 -0.05669,0.03859 -0.100586,0.06844 0,-0.08673 0,-0.148974 0,-0.21649 -0.236292,0 -0.464792,0 -0.699492,0 0,0.961943 0,1.919661 0,2.878132 0.245346,0 0.48312,0 0.72874,0 0,-0.05166 0,-0.09338 0,-0.135205 0,-0.502869 0.01317,-1.006374 -0.0059,-1.508433 -0.0087,-0.22783 0.08544,-0.355399 0.250944,-0.454098 0.07183,-0.04287 0.148821,-0.08089 0.227896,-0.104606 0.366016,-0.109692 0.681877,0.06601 0.75733,0.420195 0.01729,0.08145 0.0231,0.167141 0.02349,0.250972 0.0022,0.467694 0.0011,0.935445 0.0011,1.403139 0,0.04114 0,0.08233 0,0.137577 0.236511,0 0.453103,-0.001 0.669695,6.94e-4 0.05433,4.05e-4 0.06744,-0.02656 0.06689,-0.07782 -0.006,-0.562401 -0.0049,-1.124975 -0.01921,-1.687145 -0.0054,-0.215217 -0.06843,-0.421699 -0.182734,-0.605734 z" />
  <path d="m 11.617117,5.4242579 c -0.05317,-0.991621 -1.107927,-1.528682 -1.8943417,-0.979415 -0.028864,0.02019 -0.058607,0.03905 -0.098226,0.06531 -0.00401,-0.08233 -0.00708,-0.146949 -0.010371,-0.214349 -0.2327251,0 -0.4554081,0 -0.688243,0 0,0.966745 0,1.923711 0,2.88305 0.244194,0 0.4793885,0 0.7272043,0 0,-0.04808 0,-0.08933 0,-0.130519 0,-0.509812 0.013444,-1.020144 -0.0062,-1.529088 -0.00856,-0.220887 0.081325,-0.342266 0.2404625,-0.437493 0.071832,-0.04305 0.1483819,-0.08169 0.2272929,-0.106278 0.363053,-0.113279 0.688023,0.06208 0.762489,0.410938 0.01811,0.08487 0.02475,0.174025 0.02519,0.261328 0.0024,0.471106 0.0012,0.942156 0.0012,1.413321 0,0.03749 0,0.07503 0,0.117386 0.250614,0 0.488443,0 0.726765,0 0.004,-0.01666 0.0085,-0.02656 0.0083,-0.03639 -0.0055,-0.5727 0.0092,-1.146614 -0.02151,-1.717809 z" />
  <path d="m 2.4484273,4.0069449 c 0.027986,-0.272146 0.1901969,-0.430378 0.4501401,-0.436858 0.089007,-0.0022 0.1780696,-3.47e-4 0.2815639,-3.47e-4 0.033803,-0.19653 0.07035,-0.408855 0.1078295,-0.626561 -0.3373718,-0.11513 -0.7751102,-0.06717 -1.0689662,0.104543 -0.4674258,0.273014 -0.5198314,0.74279 -0.5198863,1.245775 -0.2402979,0 -0.4684684,0 -0.6991083,0 0,0.221871 0,0.430841 0,0.65248 0.2342068,0 0.4623773,0 0.700974,0 0,0.05415 0,0.09552 0,0.13694 0,0.495696 0,0.991448 0,1.487202 0,0.175761 -0.00208,0.351637 0.00214,0.527283 6.585e-4,0.02939 0.028041,0.08291 0.04401,0.08325 0.2255365,0.0056 0.4512926,0.0037 0.69181,0.0037 0,-0.751931 0,-1.49125 0,-2.244628 0.2926487,0 0.5704811,0 0.8447467,0 0,-0.223433 0,-0.432518 0,-0.647621 -0.2041352,0 -0.400588,0 -0.5970956,0 -0.017779,0 -0.034242,0 -0.049717,-1.15e-4 v 1.15e-4 H 2.436245 v -0.107274 c -0.00165,-0.04137 0.00395,-0.09818 0.012182,-0.177902 z" />
  <path d="m 12.962434,6.3405539 c -0.298904,-0.273999 -0.331226,-0.802092 -0.06777,-1.123819 0.313885,-0.383343 0.750581,-0.361474 1.210763,0.06619 0.168466,-0.156265 0.337756,-0.313282 0.506222,-0.469488 -0.290563,-0.475677 -1.010688,-0.704838 -1.603504,-0.516754 -0.612405,0.194275 -1.054205,0.784214 -1.025834,1.53065 0.02387,0.62818 0.451567,1.193822 1.057497,1.365128 0.64138,0.1813732 1.362658,-0.0788 1.655691,-0.600932 -0.184765,-0.14585 -0.369858,-0.29199 -0.554787,-0.437899 -0.369419,0.507729 -0.903738,0.438651 -1.178278,0.186928 z" />
  <path d="m 4.3447997,4.5637339 c -0.0045,-0.100779 -0.00812,-0.182414 -0.011798,-0.265261 -0.235853,0 -0.4610054,0 -0.6914258,0 0,0.96119 0,1.916016 0,2.88733 0.2102813,0 0.4101911,-0.0042 0.6097717,0.0019 0.089007,0.0027 0.1198472,-0.0206 0.1189143,-0.121551 -0.00499,-0.534458 -0.00318,-1.069089 -9.878e-4,-1.603604 2.195e-4,-0.0501 0.00648,-0.110675 0.032925,-0.148454 0.160729,-0.229913 0.3723273,-0.368821 0.6510377,-0.369515 0.082148,-1.73e-4 0.1643508,0.0096 0.2537423,0.01521 0.027602,-0.236334 0.05471,-0.467694 0.082642,-0.706631 -0.3948809,-0.06619 -0.74224,0.0078 -1.0448211,0.310562 z" />
  <path d="m 17.85707,4.4099579 c -2.74e-4,0.88569 -2.19e-4,1.771323 -2.19e-4,2.657013 0,0.01759 -0.0059,0.03911 0.0015,0.05184 0.01454,0.0247 0.03627,0.06306 0.05564,0.06347 0.219555,0.0045 0.439165,0.0028 0.666293,0.0028 0,-0.972876 0,-1.929786 0,-2.885654 -0.243316,0 -0.478236,0 -0.718754,0 -0.0018,0.04137 -0.0044,0.07591 -0.0044,0.110445 z" />
  <path d="m 22.766413,4.2934969 c 0.01405,5.79e-4 0.02535,-4.63e-4 0.03539,-0.0024 h -0.134498 c 0.03303,4.05e-4 0.06607,0.0011 0.0991,0.0024 z" />
  <path d="m 23.591953,4.2921079 c 3.3e-4,-0.215275 -0.02393,-0.420194 0.121658,-0.576864 0.171595,-0.184729 0.392741,-0.155686 0.615095,-0.1267 0.03726,-0.218111 0.07353,-0.430957 0.111341,-0.652712 -0.234042,-0.05889 -0.452664,-0.07741 -0.671122,-0.03303 -0.423031,0.08585 -0.74652,0.307842 -0.858739,0.772064 -0.03512,0.145098 -0.04127,0.298643 -0.04889,0.450395 v 0.165868 h -0.05948 c -0.01004,0.002 -0.02135,0.003 -0.03539,0.0024 -0.03304,-0.0014 -0.06607,-0.002 -0.09916,-0.0024 h -0.0315 v -5.7e-5 c -0.08319,-3.48e-4 -0.166381,0.0011 -0.249571,0.0011 -0.07864,0 -0.157272,0 -0.237994,0 0,0.224648 0,0.433791 0,0.65167 0.203367,0 0.399765,0.0044 0.595889,-0.002 0.02003,-6.35e-4 0.03666,3.47e-4 0.0507,0.0032 h 0.06184 v 0.09384 c 2.75e-4,0.0063 7.69e-4,0.01232 7.14e-4,0.01949 -0.004,0.664572 -0.0021,1.329201 -0.0021,1.99383 0,0.04091 0,0.0818 0,0.125717 0.251712,0 0.489595,0 0.740045,0 0,-0.747361 0,-1.486854 0,-2.239132 0.287271,0 0.562085,0 0.83432,0 0,-0.221929 0,-0.430725 0,-0.646521 -0.145364,0 -0.281728,0 -0.418093,0 -0.138395,-5.8e-5 -0.27679,-5.8e-5 -0.41952,-5.8e-5 z" />
  <path d="m 22.667254,4.2911249 c -0.01048,-1.15e-4 -0.02102,0 -0.0315,-5.7e-5 v 5.7e-5 z" />
</svg>
