<?xml version="1.0" encoding="UTF-8"?>
<svg xmlns="http://www.w3.org/2000/svg" width="30" height="10">
  <path d="m 17.816244,0.50473686 c -0.01493,0 -0.03038,0 -0.04619,0 L 12.229922,1.6092369 C 12.103457,1.6342369 12,1.7543369 12,1.8755369 v 6.249 c 0,0.1213 0.103453,0.2411 0.229922,0.2663 l 5.540132,1.1045 c 0.126464,0.025 0.229921,-0.053 0.229921,-0.1746 v -2.8632 c -0.236492,0.8414 -1.04135,1.2319 -2.241367,1.2319 -1.56677,0 -2.184967,-0.7114 -2.184967,-1.5967 h 1.500734 c 0.03372,0.2693 0.20947,0.5823 0.754959,0.5823 0.4552,0 0.764209,-0.1757 0.764209,-0.757 0,-0.5436 -0.319216,-0.6946 -0.776767,-0.6946 -0.350468,0 -0.557567,0.1295 -0.719009,0.309 l -1.290164,-0.1954 0.333473,-3.0387 h 3.858899 V 0.67943686 c 0,-0.1061 -0.07921,-0.1796 -0.183735,-0.1794 z M 17.99998,2.3030369 v 1.2245 h 2.3e-5 v -1.2245 z m 0,1.2245 h -2.677337 l -0.111518,0.9738 c 0.0034,0 0.01455,0.01 0.01455,0.01 0.184431,-0.15 0.609539,-0.2731 0.93603,-0.2731 0.78766,0 1.596406,0.2671 1.838271,1.1071 z m 0,1.817 v 1.1177 c 8e-6,0 1.1e-5,0 2.3e-5,-10e-5 v -1.1175 c -7e-6,0 -1.2e-5,0 -2.3e-5,-1e-4 z"
        fill="white" />
</svg>
