<?xml version="1.0" encoding="UTF-8"?>
<svg xmlns="http://www.w3.org/2000/svg" width="30" height="10">
  <path d="M 5.5,0.49999573 V 9.4815557 h 3.3618619 v -3.19823 h 2.7762771 v 3.21667 h 2.89876 v -0.002 h 1.558449 c 0.424667,-0.002 0.850374,-0.0603 1.262155,-0.17748 2.431129,-0.69179 3.830267,-3.18342 3.123896,-5.56435 -0.01978,-0.0667 -0.04153,-0.13202 -0.06416,-0.19708 h 0.915705 v 5.8179 H 24.5 V 0.55332573 h -4.519033 l 0.01283,2.11716997 C 19.166236,1.3410157 17.68071,0.52427573 16.095349,0.51874573 h -0.155147 -1.403303 v -0.001 H 11.601978 V 3.6998457 H 8.8805259 V 0.50045573 Z m 9.036899,2.65193997 h 1.191 0.0082 c 1.059385,0.009 1.912703,0.85957 1.908398,1.9005 -0.0043,1.03431 -0.855374,1.87242 -1.908398,1.88206 -0.002,2e-5 -0.0038,-1e-5 -0.0059,0 h -1.1933 z m 0.628745,0.6166 v 2.55051 h 0.485266 c 0.007,-3e-5 0.014,1.5e-4 0.02099,0 0.149335,-0.003 0.297145,-0.027 0.439772,-0.0738 0.724896,-0.23752 1.10197,-0.96795 0.842216,-1.63081 -0.200463,-0.51155 -0.721324,-0.83241 -1.281988,-0.84364 v -0.002 z"
        fill="white" />
</svg>
