<?xml version="1.0" encoding="UTF-8"?>
<svg xmlns="http://www.w3.org/2000/svg" width="30" height="10">
  <path d="m 19.326804,1.3562968 c 0,0.4729 -0.389228,0.8563 -0.869358,0.8563 -0.480118,0 -0.869333,-0.3834 -0.869333,-0.8563 0,-0.47290002 0.389215,-0.85630002 0.869333,-0.85630002 0.48013,0 0.869358,0.3834 0.869358,0.85630002"
        fill="white" />
  <path d="m 19.493487,2.3249968 c -0.664317,0.2304 -1.33149,0.458 -1.995419,0.6888 -0.04806,0.027 -0.14295,0.01 -0.118046,0.1076 0.0088,0.2537 -0.01035,0.5485 0.0141,0.7785 0.193756,-0.067 0.390574,-0.1302 0.585157,-0.196 -0.0035,0.8034 0.0069,1.6205 -0.0051,2.4154 -0.05085,0.2668 -0.194441,0.46 -0.538954,0.4222 -0.257399,-0.04 -0.446925,-0.1462 -0.614669,-0.2742 -0.162483,-0.1113 -0.325291,-0.2224 -0.485062,-0.3363 0.296321,-0.1177 0.534647,-0.2925 0.734013,-0.5056 0.179899,-0.2116 0.33976,-0.4509 0.319515,-0.8519 -0.02087,-0.1811 -0.05647,-0.3085 -0.175429,-0.5073 -0.303332,-0.5261 -1.01241,-0.695 -1.554044,-0.4483 -0.759402,0.263 -1.518804,0.526 -2.278206,0.7889 0,0.2791 0,0.5582 0,0.8373 0.106874,-0.01 0.32488,-0.17 0.359308,-0.078 -0.002,0.3692 0.0033,0.7666 -0.005,1.1172 -0.396347,-0.3638 -0.791133,-0.7291 -1.186969,-1.0934 -0.134631,-0.1244 -0.269751,-0.2483 -0.404215,-0.3729 -0.549934,0.1872 -1.094782,0.3795 -1.643816,0.5676 0.0026,0.277 -0.0052,0.5782 0.0039,0.8405 0.165646,-0.06 0.327197,-0.1235 0.49275,-0.1833 -0.0051,0.7993 0.01029,1.6187 -0.0077,2.4054 -0.163562,0.056 -0.326024,0.1137 -0.488916,0.1706 0.0026,0.2919 -0.0052,0.6009 0.0039,0.8822 0.618589,-0.2106 1.233261,-0.425 1.851695,-0.6357 0.05748,-0.029 0.0026,-0.1688 0.0218,-0.2357 0.0026,-0.5834 -0.0052,-1.1836 0.0039,-1.7564 0.375612,0.3421 0.754143,0.6813 1.130521,1.0226 0.155058,0.1379 0.309941,0.2829 0.464517,0.417 0.315531,-0.1197 0.643935,-0.2268 0.914935,-0.3905 0.386155,-0.2208 0.70935,-0.5037 0.976534,-0.8418 0.02947,-0.036 0.0591,-0.091 0.08727,-0.115 0.268114,0.2141 0.49162,0.4722 0.789183,0.6573 0.254958,0.1525 0.576052,0.249 0.97268,0.254 0.70915,-0.042 1.196078,-0.3024 1.493665,-0.7495 0.194292,-0.3039 0.312293,-0.6829 0.284871,-1.2053 -0.0017,-1.1979 0.0034,-2.4027 -0.0026,-3.5964 z m -3.814576,2.1739 c 0.327884,0.01 0.322884,0.4504 0.249778,0.6257 -0.06011,0.1388 -0.251764,0.148 -0.387542,0.2123 -0.152081,0.054 -0.302003,0.1095 -0.452975,0.1643 7.7e-5,-0.2708 -3.02e-4,-0.5412 -1.7e-4,-0.8121 0.197597,-0.06 0.388178,-0.1533 0.590909,-0.1902 z"
        fill="white" />
  <path d="m 15.879346,6.1246968 c -0.07792,8e-4 -0.129005,0.012 -0.129005,0.012 l -1.385881,0.4676 v 0.5308 l 1.124543,-0.3886 c 0.140757,-0.047 0.269897,-0.032 0.273105,0.2212 0,0.1832 -0.153987,0.2243 -0.153987,0.2243 0,0 -0.202107,0.066 -0.702565,0.2338 -0.500457,0.1675 -0.519717,0.6162 -0.526134,0.8342 -0.0064,0.2181 -0.01496,0.828 -0.01496,0.828 l 2.212489,-0.7553 v -0.5372 l -1.434002,0.4898 c 0.0064,-0.3981 0.170033,-0.4645 0.3807,-0.5393 0.07699,-0.034 0.560345,-0.1854 0.710046,-0.2907 0.149701,-0.1053 0.453401,-0.3707 0.363576,-0.7625 -0.14449,-0.5027 -0.518802,-0.5702 -0.717922,-0.5683 z"
        fill="white" />
  <path d="m 14.116374,6.6802968 -0.853356,0.3034 v 0.8089 1.6621 l 0.853356,-0.2907 v -1.6369 z"
        fill="white" />
</svg>
