<?xml version="1.0" encoding="UTF-8"?>
<svg xmlns="http://www.w3.org/2000/svg" width="30" height="10">
  <path d="m 14.929151,0.4998 c -0.038,0 -0.076,5e-4 -0.114399,0 -0.076,0 -0.151498,0.01 -0.226397,0.012 -0.112599,0.01 -0.223898,0.022 -0.333997,0.04 -0.073,0.012 -0.145998,0.025 -0.217997,0.04 -0.036,0.01 -0.072,0.016 -0.107699,0.024 -0.072,0.017 -0.142199,0.036 -0.212298,0.057 -0.07,0.021 -0.139198,0.043 -0.207897,0.067 v 0 c -0.069,0.024 -0.136399,0.05 -0.203498,0.077 -0.034,0.014 -0.067,0.028 -0.1,0.042 -0.033,0.014 -0.066,0.029 -0.099,0.045 -0.065,0.03 -0.129899,0.063 -0.193598,0.096 v 0 c -0.032,0.017 -0.063,0.034 -0.095,0.052 -0.063,0.035 -0.124498,0.072 -0.185398,0.1098 -0.03,0.019 -0.061,0.038 -0.091,0.058 -0.09,0.059 -0.177298,0.1215 -0.262497,0.1868 -0.057,0.044 -0.112599,0.089 -0.167198,0.1347 -0.055,0.046 -0.108199,0.094 -0.160698,0.1425 -0.261897,0.2436 -0.495195,0.5182 -0.693992,0.8171 -0.04,0.06 -0.078,0.1205 -0.114899,0.1823 -0.037,0.062 -0.072,0.124 -0.106599,0.1876 v 0 c -0.051,0.095 -0.099,0.1924 -0.143098,0.2912 v 0 c -0.059,0.132 -0.111999,0.2671 -0.158399,0.4049 v 1e-4 c -0.012,0.034 -0.023,0.069 -0.034,0.1039 v 0 c -0.022,0.07 -0.042,0.1398 -0.06,0.2106 v 1e-4 c -0.045,0.1772 -0.08,0.3582 -0.103598,0.5421 v 1e-4 c -0.01,0.074 -0.017,0.1476 -0.023,0.2221 v 1e-4 c -0.01,0.1118 -0.013,0.2244 -0.013,0.338 0,0.1395 0,0.2852 0.016,0.4131 0.01,0.085 0.018,0.1622 0.027,0.2241 0,0.031 0.01,0.058 0.012,0.081 0.01,0.045 0.012,0.071 0.012,0.071 0,0.028 0.01,0.056 0.014,0.085 v 0 c 0.01,0.028 0.011,0.056 0.016,0.085 v 0 c 0.012,0.056 0.025,0.1128 0.039,0.1693 v 0 c 0.01,0.028 0.015,0.057 0.023,0.085 v 0 c 0.039,0.1409 0.087,0.2817 0.141899,0.4211 0.019,0.048 0.039,0.095 0.059,0.1417 0,0.01 0.01,0.017 0.011,0.025 v 0 c 0.049,0.1108 0.103599,0.2204 0.162498,0.3285 v 10e-5 c 0.015,0.027 0.03,0.054 0.045,0.081 v 10e-5 c 0.031,0.054 0.063,0.1066 0.096,0.1594 v 1e-4 c 0.017,0.026 0.033,0.053 0.05,0.079 v 0 c 0.017,0.026 0.035,0.052 0.052,0.078 v 0 c 0.018,0.026 0.036,0.052 0.054,0.077 0.013,0.019 0.027,0.037 0.04,0.056 0.01,0.01 0.01,0.014 0.015,0.021 v 0 c 0.019,0.025 0.038,0.051 0.057,0.076 l 10e-5,10e-5 c 0.058,0.075 0.118698,0.1486 0.181698,0.2204 0.019,0.021 0.038,0.043 0.057,0.064 0,0 0,0 0.01,0.01 h 10e-5 c 0.021,0.024 0.043,0.047 0.065,0.07 v 0 c 0.022,0.023 0.044,0.046 0.067,0.069 0.023,0.023 0.045,0.046 0.069,0.068 v 10e-5 c 0.023,0.022 0.046,0.045 0.07,0.067 0.06,0.056 0.122198,0.1103 0.185598,0.1633 0.011,0.01 0.023,0.019 0.034,0.029 h 10e-5 c 0.100599,0.082 0.205198,0.1608 0.313497,0.235 v 0 c 0.027,0.019 0.054,0.037 0.082,0.055 0.110399,0.072 0.224297,0.1394 0.341896,0.2018 0.029,0.016 0.059,0.031 0.089,0.046 0.06,0.03 0.120199,0.059 0.181598,0.086 0.018,0.01 0.035,0.015 0.053,0.023 0.013,0.01 0.027,0.012 0.04,0.017 v 0 c 0.031,0.013 0.062,0.026 0.094,0.038 v 0 c 0.01,0 0.017,0.01 0.026,0.01 0.055,0.021 0.109799,0.041 0.165798,0.06 0.065,0.022 0.130298,0.042 0.196598,0.061 0.033,0.01 0.067,0.018 0.100199,0.027 0.067,0.017 0.135198,0.033 0.203897,0.047 0.069,0.014 0.138199,0.026 0.208398,0.037 v 0 c 0.035,0.01 0.071,0.01 0.105999,0.015 0.106399,0.013 0.214497,0.023 0.324096,0.029 0.073,0 0.146899,0.01 0.221498,0.01 C 17.654621,9.5 19.5,7.3777 19.5,5.0064 19.5,2.7762 17.802219,0.5132 14.928151,0.5132 Z m 1.447984,2.9245 c 0.504094,0 0.805991,0.3494 0.86519,0.6796 l 0.084,0.4819 0.196898,1.1272 -0.619193,0.113 -0.198498,-1.1311 -0.082,-0.464 c -0.024,-0.1421 -0.130799,-0.1788 -0.245497,-0.1788 -0.096,0 -0.189598,0.025 -0.189598,0.025 l -0.112299,-0.622 c 0,0 0.148698,-0.031 0.300297,-0.031 z m -0.519695,0.075 0.109299,0.6182 -0.515094,0.09 0.121399,0.6866 0.199797,1.133 L 15.151548,6.136 14.953951,5.003 14.834452,4.3189 14.291858,4.4159 14.182059,3.7895 Z m -1.916778,0.3347 0.231797,1.3055 0.083,0.468 c 0.07,0.3512 -0.093,0.5842 -0.330296,0.7234 -0.178398,0.097 -0.664393,0.2008 -0.90789,-0.2277 L 12.648776,5.4072 12.32478,4.7955 c -0.023,-0.051 -0.083,-0.059 -0.061,0.047 l 0.108399,0.6138 0.199498,1.1298 -0.645093,0.1188 -0.198298,-1.1357 -0.113398,-0.6499 c -0.05,-0.2784 0.063,-0.5516 0.330796,-0.703 0.115999,-0.056 0.243297,-0.088 0.368896,-0.087 0.208898,0 0.412195,0.098 0.545994,0.3352 l 0.441995,0.8281 0.243897,0.4568 c 0.032,0.066 0.084,0.044 0.059,-0.064 l -0.077,-0.4326 -0.231697,-1.3049 z"
        fill="white" />
</svg>
