<?xml version="1.0" encoding="UTF-8"?>
<svg xmlns="http://www.w3.org/2000/svg" width="30" height="10">
  <path d="m 17.3675,9.4884548 c -0.60985,-0.0523 -1.29018,-0.18983 -1.76805,-0.35733 -0.31839,-0.1116 -0.31538,-0.11255 -0.31538,0.0993 v 0.18029 h -3.64203 c -2.00312,0 -3.64204,-0.008 -3.64204,-0.0177 0,-0.0153 1.43568,-1.784 3.33526,-4.10891 0.86333,-1.05663 0.97714,-1.25016 0.95181,-1.61854 -0.0159,-0.23178 -0.0869,-0.34123 -0.28922,-0.44576 -0.12127,-0.0627 -0.17727,-0.0732 -0.29391,-0.0551 -0.29196,0.0451 -0.45007,0.29245 -0.48707,0.76192 l -0.0202,0.25571 -1.42835,0.009 -1.42834,0.009 0.0208,-0.4019 c 0.0867,-1.67532 0.91574,-2.79104 2.36,-3.17587996 0.33573,-0.0895 0.44829,-0.10339 0.95725,-0.11849 0.64136,-0.019 1.02144,0.0266 1.49076,0.17884 0.52291,0.16966 1.0366,0.49743996 1.37059,0.87455996 l 0.2039,0.23025 v -0.59695 -0.59694996 h 3.64316 c 3.46073,0 3.64154,0.003 3.61095,0.0574 -0.0177,0.0315 -0.52634,0.66190996 -1.1303,1.40080996 -0.60396,0.7389 -1.09812,1.35312 -1.09812,1.36493 0,0.0118 0.0537,0.0318 0.11929,0.0444 0.41149,0.0791 0.95275,0.39908 1.27429,0.75332 0.50183,0.55286 0.75174,1.36711 0.69235,2.25581 -0.10666,1.59597 -1.11005,2.63667 -2.83664,2.94209 -0.37131,0.0657 -1.28534,0.10826 -1.6508,0.0769 z m 1.08156,-2.55374 c 0.21807,-0.0582 0.38765,-0.1826 0.47083,-0.34544 0.0875,-0.17137 0.0607,-0.45036 -0.0606,-0.62887 -0.13163,-0.19383 -0.47414,-0.36838 -0.85188,-0.43415 -0.42487,-0.074 -1.20574,-0.0587 -1.72938,0.0339 l -0.10338,0.0183 3.8e-4,-0.86197 3.7e-4,-0.86197 0.33362,-0.40476 c 0.18349,-0.22262 0.33362,-0.41069 0.33362,-0.41795 0,-0.007 -0.35899,-0.0132 -0.79774,-0.0132 h -0.79774 l 0.0264,0.22127 c 0.0715,0.59985 -0.0109,1.20167 -0.22978,1.67779 -0.14891,0.3239 -0.23927,0.449 -0.94224,1.30461 -0.32932,0.40082 -0.59876,0.73641 -0.59876,0.74575 0,0.009 0.30627,0.017 0.6806,0.017 H 14.864 l 0.0333,-0.20488 c 0.0182,-0.11268 0.0429,-0.27494 0.0546,-0.36058 0.0117,-0.0856 0.0312,-0.15571 0.0432,-0.15571 0.012,0 0.25018,0.0891 0.52918,0.19799 0.76782,0.29967 1.41008,0.47997 1.90682,0.53528 0.23105,0.0257 0.82389,-0.0106 1.01795,-0.0623 z m -2.8151,-5.04474 c 0,-0.0227 -0.22892,-0.4121 -0.24228,-0.4121 -0.007,0 -0.0122,0.0959 -0.0122,0.21307 v 0.21307 h 0.12723 c 0.07,0 0.12723,-0.006 0.12723,-0.014 z m 0.48049,-0.0811 c -0.098,-0.0943 -0.0988,-0.0978 -0.0988,-0.42855 0,-0.2999 -0.006,-0.33234 -0.0557,-0.32245 -0.0489,0.01 -0.0568,0.0612 -0.0645,0.42856 l -0.009,0.41754 h 0.16335 0.16336 z m 0.70703,-0.19173 c 0.10653,-0.60491 0.10642,-0.57219 0.002,-0.55988 l -0.092,0.0108 -0.0159,0.33922 c -0.0154,0.32921 -0.0187,0.34154 -0.11134,0.41779 l -0.0954,0.0786 0.13116,1.5e-4 0.13114,1.9e-4 0.0505,-0.28683 z m 0.39093,0.22946 c -0.009,-0.0315 -0.0399,-0.14328 -0.0687,-0.24828 -0.0288,-0.10501 -0.0563,-0.18614 -0.061,-0.18029 -0.005,0.006 -0.0178,0.11757 -0.0291,0.24828 l -0.0206,0.23766 h 0.0978 c 0.0781,0 0.0945,-0.0115 0.0815,-0.0574 z m 0.35009,-0.0164 c -0.0106,-0.0406 -0.0193,-0.14678 -0.0196,-0.23602 -5e-4,-0.19737 -0.0383,-0.16756 -0.10824,0.0854 -0.0654,0.23656 -0.068,0.22442 0.0479,0.22442 0.0872,0 0.0968,-0.009 0.08,-0.0738 z m 0.32283,-0.3442 -0.009,-0.41794 -0.0874,-0.0104 c -0.0481,-0.006 -0.0874,0.002 -0.0873,0.0164 10e-5,0.0147 0.0286,0.20377 0.0636,0.42012 0.0349,0.21635 0.0635,0.39705 0.0636,0.40156 9e-5,0.005 0.0148,0.008 0.0329,0.008 0.0213,0 0.0297,-0.14715 0.0239,-0.41796 z m 0.60436,0.003 c -0.007,-0.29632 -0.0203,-0.41916 -0.0486,-0.42888 -0.0269,-0.009 -0.0398,0.0245 -0.0398,0.10386 0,0.11519 -0.003,0.11746 -0.12723,0.11746 -0.0919,0 -0.12723,0.0137 -0.12723,0.0492 0,0.0344 0.0336,0.0492 0.11133,0.0492 0.10249,0 0.11132,0.008 0.11132,0.0983 0,0.0905 -0.009,0.0983 -0.11132,0.0983 -0.0777,0 -0.11133,0.0148 -0.11133,0.0492 0,0.0355 0.0353,0.0492 0.12723,0.0492 0.12421,0 0.12723,0.003 0.12723,0.11474 0,0.0811 0.0143,0.11473 0.0486,0.11473 0.0416,0 0.0473,-0.0604 0.0398,-0.41527 z m 0.35363,0.27596 c -0.092,-0.18796 -0.0922,-0.18799 -0.0922,-0.0137 0,0.14165 0.006,0.15297 0.0802,0.15297 h 0.0802 z m 0.5549,0.0719 c -0.22863,-0.15094 -0.24016,-0.48375 -0.0235,-0.67834 l 0.11862,-0.10654 -0.33134,0.003 c -0.29216,0.002 -0.31923,0.007 -0.22898,0.041 0.14422,0.0542 0.20334,0.12624 0.20681,0.25195 0.002,0.075 -0.0187,0.1268 -0.067,0.1671 l -0.07,0.0584 0.10477,0.16509 c 0.10013,0.1578 0.11108,0.16509 0.24789,0.16513 l 0.14314,3e-5 -0.10043,-0.0663 z m -2.95655,-0.21391 c 0.0106,-0.0285 0.0193,-0.16963 0.0193,-0.31358 v -0.26174 l -0.0874,0.0104 c -0.0862,0.0102 -0.0876,0.0141 -0.0968,0.26752 -0.01,0.25621 0.0187,0.34928 0.10526,0.34928 0.0222,0 0.0491,-0.0233 0.0597,-0.0519 z m 3.28918,-0.0202 c 0.0834,-0.086 0.01,-0.28846 -0.10496,-0.28846 -0.0663,0 -0.14314,0.0946 -0.14314,0.17607 0,0.0918 0.0566,0.15173 0.14314,0.15173 0.0368,0 0.0839,-0.0177 0.10496,-0.0393 z m -4.09066,-0.32944 -0.0116,-0.22127 h -0.10862 c -0.0598,0 -0.10861,0.014 -0.10861,0.031 0,0.0343 0.2249,0.43916 0.23452,0.42216 0.004,-0.006 9.7e-4,-0.11021 -0.006,-0.23191 z m 1.77459,-0.18029 c 2.9e-4,-0.025 -0.0428,-0.041 -0.1109,-0.041 -0.12865,0 -0.12893,10e-4 -0.0569,0.26848 l 0.0544,0.20194 0.0564,-0.19423 c 0.0311,-0.10683 0.0566,-0.21268 0.0569,-0.23521 z m 1.47774,0.32256 c 0.0311,-0.0519 -0.0185,-0.13408 -0.0811,-0.13408 -0.0431,0 -0.0603,0.0234 -0.0603,0.082 0,0.0593 0.0171,0.082 0.0617,0.082 0.034,0 0.0698,-0.0134 0.0797,-0.0298 z"
        fill="white" />
</svg>
