<?xml version="1.0" encoding="UTF-8"?>
<svg xmlns="http://www.w3.org/2000/svg" width="30" height="10">
  <path d="m 1,0.5 v 9 h 28 v -9 z m 21.755682,0.20089 c 2.28445,0 4.136364,1.87081 4.136364,4.17857 0,0.62729 -0.152581,1.23394 -0.397727,1.76786 H 19.017046 C 18.771898,6.1134 18.619319,5.50675 18.619319,4.87946 c 0,-2.30776 1.851913,-4.17857 4.136363,-4.17857 z m -6.801136,0.64286 c 0.259072,-0.004 0.521103,0.0156 0.715909,0.0804 0.318402,0.10594 0.761994,0.4284 0.875,0.64285 l 0.07955,0.16072 -0.318182,0.5625 C 16.923742,3.43741 16.87187,3.47598 16.590914,3.15183 16.27746,2.79019 16.027384,2.71288 15.636368,2.91075 c -0.426556,0.21588 -0.631782,0.637 -0.636364,1.28572 -0.0023,0.32905 0.0031,0.45643 0.07955,0.60268 0.169851,0.32468 0.389603,0.48214 0.71591,0.48214 0.130281,0 0.233745,-0.069 0.397726,-0.20089 0.117563,-0.0946 0.245076,-0.20006 0.27841,-0.24107 0.0343,-0.0422 0.116174,-0.0804 0.198864,-0.0804 0.139306,0 0.140575,0.0337 0.357954,0.44196 0.171057,0.32129 0.219711,0.47816 0.198863,0.5625 -0.04226,0.171 -0.324932,0.45576 -0.636362,0.64286 l -0.27841,0.16071 H 15.556826 C 14.678591,6.56693 14.560987,6.52536 14.16478,6.125 13.715586,5.67112 13.529703,5.03303 13.56819,4.15625 13.594,3.56846 13.674619,3.23885 13.886371,2.79018 c 0.287671,-0.60955 0.757171,-1.08577 1.352274,-1.32589 0.173409,-0.07 0.456837,-0.11694 0.715909,-0.12054 z M 4.1022727,1.46429 h 1.3522728 c 1.2922123,0.0128 1.3430937,0.0283 1.5113636,0.12053 0.3799238,0.2082 0.5967068,0.55232 0.6363637,1.08482 C 7.6613978,3.46358 7.3837772,4.14971 6.846591,4.55804 6.77738,4.61064 6.803954,4.69232 7.0454546,5.5625 7.1892219,6.08053 7.3231967,6.50776 7.3238637,6.52679 7.3245321,6.54529 6.9733891,6.57339 6.5681819,6.56699 H 5.8522727 L 5.6534092,5.72324 C 5.549668,5.27255 5.4692696,4.90364 5.4545455,4.87946 c -0.039473,-0.0649 -0.179046,-0.0729 -0.2386364,0 C 5.1873921,4.91436 5.1195561,5.20569 5.096591,5.52232 5.073627,5.83893 5.070784,6.19643 5.056818,6.32589 L 5.0170439,6.56696 H 4.2613622 c -0.6824113,0 -0.7553109,-0.009 -0.7556819,-0.0804 C 3.5051182,6.3782 4.0353372,1.67265 4.0624985,1.54459 Z m 4.4545456,0 h 0.5965908 c 0.598259,0 0.6355619,-0.0174 0.6761365,0.0803 0.023024,0.0555 0.1841804,0.61334 0.3579544,1.20536 0.173774,0.59203 0.342253,1.06708 0.357955,1.08482 0.01571,0.0178 0.300931,-0.49988 0.636363,-1.16518 L 11.77841,1.46424 h 0.636363 c 0.348846,0 0.627161,0.0217 0.636363,0.0402 0.01525,0.0305 -0.339548,4.40872 -0.397727,4.86161 L 12.61363,6.56694 H 11.937493 11.30113 V 6.40623 c 0,-0.0981 0.01321,-0.51417 0.03978,-0.88393 0.02662,-0.36973 0.04897,-0.69531 0.03977,-0.72321 -0.0091,-0.0279 -0.210052,0.38815 -0.437499,0.88393 l -0.397729,0.88392 h -0.238636 c -0.263874,0 -0.195192,0.11006 -0.5568188,-1.04464 L 9.5113608,4.79909 9.3920427,5.68302 c -0.054174,0.48102 -0.077204,0.8775 -0.079545,0.88392 -0.00235,0.006 -0.3106823,0 -0.6761364,0 H 7.9602248 L 7.9999984,6.40623 C 8.0132298,6.32603 8.1447815,5.24123 8.2784075,3.99552 8.4120332,2.7498 8.5038125,1.6649 8.5170438,1.5848 L 8.5568174,1.46427 Z M 5.4147727,2.46875 c -0.081457,0.0456 -0.085465,0.22224 -0.1193181,0.76339 -0.015431,0.24669 -0.027885,0.47912 -0.039773,0.52232 -0.018749,0.0683 0.023582,0.0804 0.2386365,0.0804 0.4211768,0 0.6291179,-0.15935 0.6761363,-0.5625 0.05199,-0.44581 -0.224659,-0.80357 -0.6363637,-0.80357 -0.044302,0 -0.092165,-0.0152 -0.1193181,0 z m 0.4772728,5.14286 c 0.1457399,0 0.2784091,0.017 0.2784091,0.0402 0,0.023 0.08015,0.0325 0.1590909,0.0402 0.1199688,0.0117 0.1193182,0.0268 0.1193182,0.12054 0,0.11044 4.257e-4,0.10742 -0.3977272,0.12054 L 5.6534092,7.97329 5.6136357,8.13401 V 8.3349 h 0.3579545 0.3579546 v 0.12054 0.12053 l -0.3579546,0.0402 c -0.3152062,0.0113 -0.3627399,0.0125 -0.3579545,0.0804 0.00303,0.0432 -0.00303,0.13918 0,0.20089 0.00548,0.11133 0.020886,0.0804 0.4375001,0.0804 0.418082,0 0.4375,0.009 0.4375,0.12053 V 9.21893 H 5.8920448 5.3352267 V 8.45554 7.73232 l 0.1590909,-0.0402 c 0.078944,-0.008 0.1590909,-0.017 0.1590909,-0.0402 0,-0.023 0.092895,-0.0402 0.2386363,-0.0402 z m -2.3863636,0.0804 h 0.3579545 c 0.5499116,0.003 0.7965354,0.12342 0.9545455,0.48215 0.1623435,0.36856 -0.021922,0.80483 -0.3977274,0.96428 -0.082077,0.035 -0.3004738,0.0804 -0.5170454,0.0804 H 3.5056819 V 8.45545 7.69205 Z m 4.1363636,0 c 0.2053576,0 0.5305771,0.1109 0.5568182,0.2009 0.00655,0.0224 -0.04527,0.0745 -0.079545,0.12053 -0.060565,0.0814 -0.047227,0.0941 -0.2386363,0 C 7.571606,7.86151 7.2715002,7.96624 7.1647732,8.29469 7.0114109,8.76663 7.501397,9.15682 7.920455,8.89737 c 0.1427587,-0.0881 0.1549507,-0.077 0.2386364,0 0.08624,0.0792 0.073322,0.062 -0.039774,0.16072 C 8.0565341,9.11299 7.9319571,9.19321 7.8409088,9.2188 7.6311818,9.2779 7.6124814,9.2542 7.4034087,9.1786 7.0457721,9.04912 6.8484767,8.77545 6.8863633,8.37503 6.9243275,7.97378 7.2185134,7.69199 7.6420451,7.69199 Z m 1.5113636,0 c 0.065958,-0.0139 0.1260755,-0.008 0.2386365,0 0.2923957,0.0215 0.4353556,0.12103 0.5965908,0.36161 0.1183686,0.17662 0.1409886,0.56461 0.039773,0.76339 C 9.9389393,8.99272 9.7467232,9.16364 9.5511371,9.2188 9.343094,9.2776 9.2805548,9.2534 9.0738644,9.1786 8.8537902,9.0989 8.7357809,8.99669 8.6363644,8.77682 8.467059,8.40239 8.571585,8.01679 8.9147735,7.81253 8.9984559,7.76253 9.0874519,7.70591 9.1534098,7.69199 Z m 1.4318179,0 h 0.119318 0.159091 v 0.52233 c 0,0.51379 -0.02355,0.57825 0.07955,0.68303 0.133726,0.13577 0.321022,0.12484 0.477274,0 0.111255,-0.0889 0.147177,-0.11355 0.15909,-0.64286 V 7.73219 h 0.119319 0.15909 v 0.52232 c -9.41e-4,0.59939 -0.05681,0.76745 -0.278409,0.88393 -0.343307,0.1803 -0.769511,0.0844 -0.914773,-0.20089 -0.0491,-0.0964 -0.07955,-0.26873 -0.07955,-0.68304 z m 1.829546,0 c 0.131668,0.0134 0.116672,0.0557 0.278409,0.48215 0.289628,0.76363 0.266682,0.73226 0.517045,0.0804 0.211873,-0.55179 0.193363,-0.5625 0.318182,-0.5625 0.07119,0 0.159091,0.0141 0.159091,0.0402 0,0.0435 -0.09641,0.23246 -0.477273,1.16518 -0.119894,0.29353 -0.127496,0.32143 -0.238636,0.32143 -0.117366,0 -0.118953,-0.0386 -0.397727,-0.72321 -0.160795,-0.39489 -0.318182,-0.7373 -0.318182,-0.7634 0,-0.0269 0.08261,-0.0479 0.159091,-0.0402 z m 1.710228,0 h 0.556818 0.556818 v 0.12054 0.16071 h -0.437501 -0.4375 v 0.16072 0.20089 h 0.397728 0.357955 v 0.12054 0.12053 h -0.357955 -0.397728 l 0.03978,0.2009 v 0.20089 h 0.397726 c 0.401261,0.0126 0.437501,0.012 0.437501,0.12053 V 9.2188 H 14.681824 14.125007 V 8.45541 7.69201 Z m 1.590908,0 h 0.437501 c 0.518153,0.0205 0.675055,0.0733 0.755681,0.32143 0.06703,0.20623 -0.02662,0.45167 -0.198864,0.5625 L 16.590909,8.65634 16.75,8.89741 c 0.09758,0.13841 0.198864,0.26698 0.198864,0.28125 0,0.0144 -0.07885,0.0402 -0.159091,0.0402 -0.128093,0 -0.154096,-0.045 -0.318182,-0.28125 -0.167097,-0.2407 -0.221097,-0.24107 -0.357955,-0.24107 h -0.15909 v 0.24107 c 0,0.2691 0.01318,0.28125 -0.119319,0.28125 H 15.715909 V 8.45547 7.69207 Z m 1.590909,0 H 17.90341 18.5 v 0.12054 c 0,0.13197 -0.02272,0.16071 -0.238636,0.16071 H 18.0625 V 8.57594 9.2188 H 17.90341 17.744319 V 8.57594 7.97326 h -0.238638 c -0.215856,0 -0.198863,-0.0292 -0.198863,-0.16071 z m 1.630682,0 h 0.556819 0.556818 v 0.12054 0.16071 h -0.437501 -0.4375 v 0.16072 0.20089 h 0.397728 0.357955 v 0.12054 0.12053 h -0.357955 -0.397728 l 0.03978,0.2009 v 0.20089 h 0.437499 c 0.424744,0.0126 0.4375,0.0115 0.4375,0.12053 V 9.2188 H 19.494324 18.937507 V 8.45541 7.69201 Z m 2.346591,0 c 0,-0.0105 0.101863,0 0.238636,0 h 0.238637 l -0.03978,0.16072 c -0.01518,0.0802 -0.02435,0.17177 -0.03977,0.24107 -0.02803,0.12613 -0.01472,0.13455 0.198863,0.12054 h 0.198864 l 0.07955,-0.24108 0.07955,-0.24107 0.238637,-0.0402 c 0.138658,-0.007 0.238637,-0.0136 0.238637,0 0,0.022 -0.2989,1.24698 -0.357955,1.44643 -0.01842,0.0622 -0.0882,0.0804 -0.278409,0.0804 -0.269465,0 -0.255856,0.002 -0.159091,-0.32143 l 0.03978,-0.24107 -0.198864,0.0402 H 21.52274 l -0.07955,0.28125 -0.03977,0.24107 h -0.278408 c -0.233877,0 -0.261202,-0.008 -0.238637,-0.0804 0.03742,-0.11977 0.397728,-1.42508 0.397728,-1.44643 z m 1.630683,0 c 0,-0.051 0.830822,0.019 0.954545,0.0804 0.29576,0.14665 0.384241,0.53002 0.238636,0.88393 -0.09492,0.23072 -0.183105,0.32072 -0.4375,0.44196 -0.188903,0.0901 -0.267455,0.12019 -0.676136,0.12054 -0.441036,3.9e-4 -0.500704,-0.005 -0.477274,-0.0804 0.04294,-0.13738 0.397729,-1.42135 0.397729,-1.44643 z m 1.90909,0 c 0.155399,-0.017 0.330832,0.0122 0.437501,0.12054 0.105853,0.10752 0.119316,0.18969 0.119316,0.36161 0,0.19849 -0.01984,0.2315 -0.278408,0.48214 -0.15021,0.14556 -0.298353,0.24107 -0.318182,0.24107 -0.01983,0 -0.03977,0.0155 -0.03977,0.0402 0,0.026 0.166576,0.0402 0.357953,0.0402 0.323849,0 0.318183,0.011 0.318183,0.12053 v 0.12054 h -0.556819 c -0.549631,0 -0.556817,-0.0159 -0.556817,-0.12054 0,-0.0763 0.100608,-0.18123 0.357953,-0.40178 0.369474,-0.31663 0.4375,-0.41198 0.4375,-0.5625 0,-0.0907 -0.140165,-0.20089 -0.238636,-0.20089 -0.02917,0 -0.125452,0.0176 -0.198864,0.0804 -0.116013,0.099 -0.119979,0.13037 -0.198863,0.0804 -0.104593,-0.0663 -0.112662,-0.10691 -0.03977,-0.20089 0.101807,-0.13117 0.242328,-0.18385 0.397727,-0.2009 z m 1.511363,0 c 0.105639,0 0.119319,0.0145 0.119319,0.48215 v 0.44196 h 0.07955 c 0.09323,0 0.119319,0.0471 0.119319,0.16072 0,0.11359 -0.0261,0.12053 -0.119319,0.12053 -0.09674,0 -0.07955,0.0232 -0.07955,0.16072 0,0.13755 -0.02257,0.16071 -0.119319,0.16071 -0.119662,0 -0.131281,-0.0172 -0.119318,-0.20089 V 8.89737 H 25.857955 25.460227 V 8.73666 c 0,-0.12171 0.08769,-0.22963 0.397728,-0.60268 0.287398,-0.34572 0.396696,-0.44197 0.477272,-0.44197 z M 9.4318182,7.93309 C 9.2782717,7.89389 9.0603194,7.99739 8.9545456,8.13398 8.7670492,8.37605 8.8829023,8.82646 9.1534091,8.93755 9.5158338,9.08626 9.8825305,8.81644 9.8295456,8.41523 9.8031445,8.21534 9.6031557,7.9768 9.4318182,7.93309 Z M 3.784091,7.97329 v 0.48215 0.48214 h 0.2386363 c 0.2912366,0 0.3874361,-0.0245 0.4772728,-0.20089 C 4.6156708,8.50951 4.5907915,8.26681 4.420455,8.09383 4.2854393,7.95676 4.2451066,7.97329 4.0227277,7.97329 Z m 12.170455,0 v 0.24108 0.24107 h 0.238635 c 0.288115,0 0.437501,-0.10004 0.437501,-0.28125 0,-0.16814 -0.08381,-0.2009 -0.397727,-0.2009 z m 10.261363,0.12054 -0.198864,0.20089 c -0.09467,0.10988 -0.175011,0.19787 -0.198863,0.24107 -0.03878,0.0709 -0.04104,0.0804 0.159092,0.0804 h 0.238635 V 8.33494 8.09387 Z m -2.903408,0.0402 c 0,0.006 -0.03266,0.15499 -0.07955,0.32143 l -0.119317,0.32143 h 0.119317 c 0.141364,0 0.362588,-0.10794 0.397727,-0.2009 0.05419,-0.14346 0.017,-0.29295 -0.07955,-0.3616 -0.08185,-0.0581 -0.238635,-0.11983 -0.238635,-0.0804 z"
        fill="white" />
</svg>
