<?xml version="1.0" encoding="UTF-8"?>
<svg xmlns="http://www.w3.org/2000/svg" width="300" height="100" fill="white">
  <path d="m 98.964403,99.798443 c -2.832173,-0.4772 -5.128982,-2.41148 -6.003722,-5.05609 -0.514387,-1.55515 -0.527506,-4.88605 -0.02592,-6.58213 1.218214,-4.11933 3.806597,-6.92909 7.554279,-8.20038 1.26365,-0.42865 1.93434,-0.50426 3.79667,-0.42796 1.93215,0.0792 2.44162,0.19141 3.49458,0.76992 0.67797,0.37248 1.52672,0.98544 1.8861,1.36213 l 0.65343,0.68488 -0.54378,0.4736 -0.54378,0.47359 -0.67078,-0.67359 c -2.795,-2.80668 -8.22047,-2.32423 -11.360966,1.01026 -3.495193,3.71111 -4.131134,9.50664 -1.399248,12.75185 0.351164,0.41715 1.192719,1.0358 1.870119,1.37477 1.024988,0.51291 1.561859,0.61632 3.199765,0.61632 2.23689,0 3.93008,-0.51736 5.55018,-1.69585 0.79313,-0.57695 1.06412,-0.66652 1.33456,-0.44114 0.53661,0.44721 0.39688,0.76737 -0.69512,1.59279 -1.43936,1.08798 -2.92416,1.69432 -4.82456,1.97017 -1.82576,0.265007 -1.67956,0.265147 -3.271807,-0.003 z m 21.108277,0.009 c -4.61978,-0.67766 -7.34793,-4.91535 -6.51136,-10.11425 0.75243,-4.67607 3.71745,-8.36251 7.81273,-9.71363 2.0326,-0.67061 5.03153,-0.67345 6.8068,-0.006 1.82155,0.68438 3.26545,2.04432 4.10184,3.86333 0.62654,1.36261 0.6935,1.75062 0.6935,4.01869 0,1.98549 -0.1122,2.83542 -0.53657,4.06454 -1.86535,5.40266 -6.99674,8.675517 -12.36694,7.88778 z m 5.72228,-2.23982 c 5.51216,-2.70812 7.57446,-11.07402 3.69118,-14.97354 -1.232,-1.23715 -2.63926,-1.74106 -4.84328,-1.7343 -2.78405,0.009 -4.33288,0.66206 -6.32761,2.66984 -3.22588,3.24701 -4.24321,7.93478 -2.47213,11.3913 1.32127,2.57866 3.07147,3.5007 6.43212,3.38855 1.78784,-0.0597 2.38913,-0.18639 3.51972,-0.74185 z m 16.3479,2.22093 c -1.37896,-0.27365 -2.82544,-1.3002 -3.52168,-2.49929 -0.50846,-0.8757 -0.54055,-1.14295 -0.42942,-3.57642 0.0661,-1.4465 0.52779,-5.15838 1.02609,-8.24863 l 0.90599,-5.61863 0.79402,-0.0766 c 0.75686,-0.073 0.78758,-0.0451 0.65653,0.59773 -0.0756,0.37088 -0.40652,2.39579 -0.73534,4.49979 -0.32882,2.104 -0.7574,4.79377 -0.95239,5.97726 -0.58131,3.52822 -0.41361,5.07693 0.68204,6.29885 0.87004,0.97032 1.81528,1.32092 3.53417,1.31088 2.1316,-0.0125 3.58102,-0.73887 4.64921,-2.33011 1.18424,-1.76413 1.53172,-3.30609 3.089,-13.70756 l 0.40271,-2.68977 h 0.74731 0.74731 l -0.20478,1.25522 c -0.11263,0.69038 -0.302,1.90078 -0.4208,2.68977 -1.67588,11.12932 -2.03939,12.40403 -4.10447,14.39297 -1.53623,1.47959 -4.43307,2.207247 -6.8655,1.72455 z M 55,99.248233 c 0,-0.17755 0.322559,-2.35626 0.716795,-4.84158 0.394237,-2.48532 1.040253,-6.61678 1.435589,-9.18103 0.395337,-2.56425 0.7793,-4.85964 0.853252,-5.10087 0.124523,-0.4062 0.419035,-0.43269 3.987325,-0.35863 3.803953,0.0789 3.873067,0.0899 5.443771,0.86705 2.942103,1.45558 4.229936,3.71873 4.229936,7.43339 0,5.40434 -3.354036,9.75436 -8.602611,11.15716 C 61.307637,99.693163 55,99.712343 55,99.248233 Z m 8.413293,-1.6123 c 2.701503,-0.89055 5.062948,-3.17561 6.153901,-5.95486 0.72974,-1.85904 0.75602,-5.17829 0.05301,-6.69454 -0.589645,-1.27174 -1.751125,-2.47461 -3.072581,-3.18207 -0.800055,-0.42832 -1.454543,-0.52424 -4.092039,-0.59972 l -3.139659,-0.0899 -0.136071,0.80014 c -0.07484,0.44008 -0.460966,2.84436 -0.858061,5.34286 -0.397093,2.4985 -0.931943,5.846 -1.188555,7.43889 -0.256613,1.59289 -0.466566,3.01847 -0.466566,3.16795 0,0.18648 0.820452,0.27178 2.614046,0.27178 2.010786,0 2.964491,-0.11552 4.132579,-0.50058 z m 12.543246,1.39717 c 0.0023,-0.29587 0.1639,-1.50627 0.359143,-2.68976 0.19524,-1.1835 0.838703,-5.27195 1.429916,-9.08545 0.591211,-3.81349 1.122662,-7.06812 1.181003,-7.23249 0.08041,-0.22658 1.349844,-0.29887 5.248409,-0.29887 h 5.142334 l -0.07533,0.6575 -0.07535,0.6575 -4.461063,0.065 c -4.398124,0.0641 -4.462593,0.0725 -4.569356,0.59773 -0.09736,0.47895 -0.305757,1.77927 -0.736768,4.59723 -0.08045,0.526 -0.204148,1.19844 -0.274879,1.49431 l -0.128605,0.53796 h 4.208293 4.208293 l -0.07534,0.6575 -0.07534,0.6575 -4.22619,0.0653 c -2.324405,0.0359 -4.226191,0.14722 -4.226191,0.24737 0,0.10015 -0.267858,1.82109 -0.595238,3.82431 -0.327382,2.00323 -0.595239,3.80165 -0.595239,3.99649 0,0.30059 0.689205,0.35425 4.549283,0.35425 4.050533,0 4.53344,0.0415 4.404763,0.3782 -0.07949,0.208 -0.144522,0.53077 -0.144522,0.71727 0,0.28244 -0.874997,0.33908 -5.238095,0.33908 h -5.238095 l 0.0042,-0.53796 z m 85.607371,-5.49908 c -0.63131,-3.32037 -1.45574,-7.64641 -1.83207,-9.61342 -0.37631,-1.96701 -0.68422,-3.72218 -0.68422,-3.90037 0,-0.22097 0.24351,-0.30017 0.76578,-0.24907 l 0.76579,0.0749 1.55565,8.42672 c 0.8556,4.63469 1.60921,8.42614 1.67469,8.42544 0.0654,-7.1e-4 2.03065,-3.81962 4.36705,-8.48649 l 4.24801,-8.48522 h 0.77788 0.77788 l -3.00207,5.93305 c -7.54227,14.905847 -6.99361,13.90925 -7.65811,13.91041 -0.6062,9e-4 -0.61256,-0.0208 -1.75626,-6.03597 z m 14.73346,5.02556 c 0.0931,-0.56143 0.47318,-2.95743 0.84468,-5.32442 0.37149,-2.367 0.9541,-6.07888 1.29467,-8.24863 0.34059,-2.16975 0.67945,-4.24087 0.75304,-4.6025 l 0.1338,-0.6575 h 5.17793 5.17794 l -0.10483,0.71728 -0.10483,0.71727 h -4.45945 -4.45946 l -0.51352,3.21025 c -0.28244,1.76564 -0.51353,3.3795 -0.51353,3.58636 0,0.32784 0.53798,0.37611 4.19214,0.37611 3.72487,0 4.17603,0.0421 4.04762,0.37819 -0.0795,0.208 -0.14452,0.53078 -0.14452,0.71727 0,0.28003 -0.73901,0.33908 -4.24361,0.33908 h -4.24362 l -0.54148,3.64614 c -0.29781,2.00537 -0.59623,3.88821 -0.66315,4.18408 l -0.12167,0.53795 h 4.56544 4.56543 l -0.0753,0.6575 -0.0753,0.6575 -5.32879,0.0644 -5.3288,0.0644 z m 17.07373,-0.24375 c 0.1126,-0.69037 0.31036,-1.95456 0.43946,-2.80931 0.1291,-0.85475 0.6125,-3.92109 1.07422,-6.81409 0.46172,-2.89299 0.96244,-6.10352 1.11273,-7.1345 l 0.27322,-1.87451 3.35274,0.086 c 3.77464,0.0968 4.41247,0.30293 5.5428,1.79153 0.59061,0.77782 0.66525,1.07241 0.65121,2.57047 -0.0117,1.23147 -0.15264,1.95671 -0.51846,2.66465 -0.68914,1.3336 -2.17027,2.6167 -3.61562,3.13219 -0.66396,0.2368 -1.20721,0.50184 -1.20721,0.58897 0,0.0871 0.60242,1.43366 1.3387,2.99229 1.58914,3.36403 2.70892,5.82949 2.70892,5.96433 0,0.0535 -0.405,0.0973 -0.9,0.0973 h -0.89999 l -2.11338,-4.66227 -2.11338,-4.66227 h -1.16076 c -0.72065,0 -1.19577,0.11332 -1.25309,0.29887 -0.0508,0.16437 -0.39388,2.26239 -0.76244,4.66227 l -0.67012,4.3634 h -0.74215 -0.74215 z m 8.65271,-10.02966 c 1.58795,-0.85617 2.26191,-2.08783 2.26191,-4.13363 0,-1.09877 -0.0996,-1.38105 -0.69998,-1.98395 -0.82293,-0.82636 -1.55778,-1.00751 -4.08715,-1.00751 -1.74753,0 -1.87789,0.0353 -1.98345,0.53795 -0.26162,1.24569 -1.08659,6.4102 -1.08687,6.80411 -1.8e-4,0.3924 0.20471,0.41746 2.44047,0.29827 1.56965,-0.0837 2.69572,-0.26757 3.15507,-0.51524 z m 11.4234,10.74693 c 0.0676,-0.29587 0.33671,-1.93663 0.59795,-3.64613 0.26125,-1.70949 0.8489,-5.42138 1.30587,-8.24862 0.457,-2.82725 0.83283,-5.32874 0.83517,-5.55886 0.004,-0.37448 -0.28321,-0.41841 -2.73383,-0.41841 h -2.73808 v -0.71727 -0.71728 h 6.44439 6.44437 l -0.0753,0.6575 -0.0754,0.6575 -2.85323,0.11955 -2.85321,0.11954 -0.64232,4.06455 c -0.35329,2.23549 -0.99234,6.35084 -1.42013,9.14521 l -0.7778,5.08068 h -0.79072 c -0.69767,0 -0.77622,-0.0633 -0.66775,-0.53796 z m 12.61541,-0.23909 c 0.0725,-0.42737 0.61209,-3.84338 1.1991,-7.59112 0.587,-3.74775 1.17046,-7.45963 1.29657,-8.24863 0.1261,-0.789 0.29265,-1.83801 0.3701,-2.33114 l 0.14081,-0.89659 h 5.25276 c 4.69204,0 5.23736,0.0404 5.10827,0.3782 -0.0795,0.208 -0.14452,0.53077 -0.14452,0.71727 0,0.28071 -0.77187,0.33908 -4.4839,0.33908 h -4.4839 l -0.4063,2.71422 c -0.22349,1.49281 -0.46976,3.10668 -0.54725,3.58636 l -0.14095,0.87214 h 4.19781 c 3.84058,0 4.19751,0.0356 4.19417,0.41841 -0.008,0.94392 -0.25636,1.00255 -4.52853,1.07005 l -4.15415,0.0656 -0.52447,3.34727 c -0.28847,1.841 -0.5889,3.69694 -0.66763,4.12431 l -0.14314,0.77704 h 4.53461 4.53458 v 0.71728 0.71727 h -5.36793 -5.36793 z M 84.559153,75.874113 c 1.611375,-2.09169 1.751268,-2.20022 2.684785,-2.0829 l 0.617494,0.0776 -0.592543,0.68904 c -1.954595,2.27287 -3.043695,3.25596 -3.607078,3.25596 -0.563463,0 -0.513124,-0.10881 0.897342,-1.9397 z m 130.321797,-6.57328 c -10.25172,-1.51935 -17.09694,-7.03644 -20.7182,-16.69838 -1.87988,-5.01576 -2.64994,-12.11739 -2.01434,-18.57667 1.19059,-12.09931 6.3186,-22.01065 14.59774,-28.21422 3.43967,-2.57736 7.24852,-4.3709 11.22008,-5.28342001 3.25851,-0.74869 8.61575,-0.69523 12.15282,0.12126 4.9368,1.13960001 8.40668,3.03628001 12.10627,6.61746001 2.00689,1.94266 2.77468,3.14132 2.77468,4.33188 0,0.54452 -1.09021,2.57241 -3.98811,7.41816 l -3.98808,6.66878 -1.66667,-0.003 -1.66668,-0.003 -0.8015,-1.18658 c -1.09631,-1.623 -3.72648,-4.05571 -5.15889,-4.7716 -3.18958,-1.5941 -8.33715,-0.34612 -11.62151,2.81753 -3.70454,3.56839 -5.85944,9.82173 -5.56724,16.15572 0.27179,5.89183 2.29717,9.59123 6.33197,11.56555 1.72667,0.84491 1.93622,0.88934 4.2068,0.89203 2.31035,0.003 2.43559,-0.0249 3.77641,-0.83398 0.76276,-0.46025 2.4978,-1.88583 3.85569,-3.16795 l 2.46884,-2.33114 h 1.88173 c 1.58279,0 1.90277,0.0665 2.01445,0.41841 0.073,0.23013 0.65305,1.38673 1.28897,2.57023 0.63591,1.1835 1.87358,3.50678 2.75037,5.16285 l 1.59416,3.01104 -0.35301,1.1937 c -0.94927,3.20992 -5.83947,7.60105 -11.01468,9.89059 -3.46425,1.5326 -6.29613,2.15243 -10.29539,2.25341 -1.89882,0.0479 -3.77382,0.0395 -4.16668,-0.0187 z M 60.000355,67.473143 c 2.308345,-21.58619 5.193507,-45.25544 7.326254,-64.25562 l 0.173393,-1.55409 16.904762,8.3e-4 c 15.528385,7.7e-4 17.027226,0.0357 18.408886,0.42913 5.54973,1.58025 8.88928,5.23825 10.41219,11.40502 0.51676,2.09254 0.72986,8.67402 0.36512,11.27662 -0.85125,6.07407 -2.84155,10.68613 -6.05414,14.02909 -1.1924,1.24079 -3.39305,2.89679 -4.28771,3.22653 -0.29902,0.11021 -0.39038,0.29613 -0.28325,0.57645 0.087,0.22758 0.40481,1.32947 0.70632,2.44866 2.06177,7.53786 4.14602,15.06942 6.24573,22.59669 l -9.51972,0.0625 c -5.235837,0.0344 -9.55403,0.0281 -9.595976,-0.0141 -0.04195,-0.0421 -1.192991,-4.80425 -2.55787,-10.58251 -1.364879,-5.77824 -2.559057,-10.69816 -2.653728,-10.93315 -0.212941,-0.52856 -1.324893,-1.12684 -2.094301,-1.12684 -0.742819,0 -1.69696,0.75967 -2.016819,1.60576 -0.804971,7.24072 -1.124196,12.39779 -1.61224,19.2549 l -0.148097,2.09204 H 60 l 3.57e-4,-0.53795 z m 30.237741,-35.34362 c 1.195911,-0.54208 2.945661,-2.13354 3.490211,-3.17448 0.705871,-1.34931 1.028489,-2.94227 1.031023,-5.09076 0.0036,-3.01256 -0.593457,-4.89524 -2.078137,-6.55346 -1.629429,-1.8199 -2.462754,-2.12716 -5.786221,-2.13351 l -2.747892,-0.005 -0.704491,8.72682 -0.704493,8.72682 3.214286,-0.005 c 2.712991,-0.004 3.381384,-0.081 4.285714,-0.49092 z m 28.715024,35.22407 7.23736,-65.08974 c 0,-0.16769 2.67435,-0.22762 8.2597,-0.18511 l 8.2597,0.0629 0.39768,1.315 c 1.3731,4.54041 9.07828,29.82797 9.17354,30.10659 0.0763,0.22317 0.26287,0.0591 0.54359,-0.47819 0.23506,-0.44988 1.53118,-2.96979 2.88027,-5.59978 1.34908,-2.63 3.23603,-6.28809 4.19322,-8.12909 2.58366,-4.96928 5.8778,-11.35981 7.42542,-14.40504 l 1.36688,-2.68961 8.5119,-1.6e-4 c 4.68155,-10e-5 8.51191,0.0584 8.51191,0.12997 -1.79094,19.8088 -3.9843,41.73663 -5.83477,62.63116 -0.0809,0.9205 -0.19599,1.91571 -0.25588,2.21159 l -0.1089,0.53795 h -8.68594 c -6.79034,0 -8.68582,-0.0652 -8.68535,-0.29886 1.8e-4,-0.16438 0.16354,-2.61207 0.36269,-5.43931 0.34966,-4.96419 0.58302,-8.35167 1.06151,-15.40934 0.12436,-1.83439 0.19195,-3.36956 0.15022,-3.41148 -0.0417,-0.0419 -1.39606,2.75004 -3.0096,6.20435 -1.61353,3.45431 -3.51587,7.51786 -4.22741,9.03011 -0.71155,1.51224 -1.53743,3.28749 -1.8353,3.94499 -0.29787,0.6575 -0.98391,2.13688 -1.52454,3.2875 l -0.98297,2.09204 h -2.95774 c -2.86277,0 -2.9627,-0.0173 -3.11227,-0.53795 -0.085,-0.29588 -0.61855,-1.99043 -1.18569,-3.76568 -0.56714,-1.77525 -1.63995,-5.16436 -2.38402,-7.53136 -0.74408,-2.36699 -1.82488,-5.76137 -2.40178,-7.54306 -0.57691,-1.78169 -1.04893,-3.36865 -1.04893,-3.52659 0,-0.15793 -0.0803,-0.28678 -0.17857,-0.28634 -0.0982,5.4e-4 -0.69872,4.81514 -1.33446,10.69931 -0.63573,5.88417 -1.21193,11.10196 -1.28043,11.59508 l -0.12454,0.89659 h -8.63776 c -8.10542,0 -8.63165,-0.0258 -8.53874,-0.41841 z" />
</svg>
