<?xml version="1.0" encoding="UTF-8"?>
<svg xmlns="http://www.w3.org/2000/svg" width="30" height="10">
  <path d="M 2.5,0.49999769 V 9.4999977 h 25 V 0.49999769 Z M 5.1833845,1.8068677 h 1.6298826 1.6736189 1.778599 c 0.456316,0 0.823801,0.35479 0.823801,0.79541 0,0.44061 -0.367485,0.7952 -0.823801,0.7952 H 8.486886 v 4.85812 H 6.8132671 v -4.85812 H 5.1833845 c -0.4563173,0 -0.8237305,-0.35459 -0.8237305,-0.7952 0,-0.44062 0.3674132,-0.79541 0.8237305,-0.79541 z m 7.1519945,0.0441 c 0.21459,-10e-4 0.428122,0.0857 0.577428,0.25531 l 2.358817,2.6792 2.358887,-2.6792 c 0.265432,-0.30147 0.733849,-0.34169 1.050292,-0.0903 l 0.106446,0.0846 c 0.221682,0.17613 0.307701,0.44723 0.248396,0.6975 v 5.45756 h -1.67362 v -3.43395 l -1.4744,1.67469 c -0.158279,0.17977 -0.388623,0.26588 -0.616001,0.25344 -0.227352,0.0124 -0.457811,-0.0737 -0.616072,-0.25344 l -1.47426,-1.67448 v 3.43374 h -1.673619 v -5.45756 c -0.05931,-0.25027 0.02678,-0.52137 0.248466,-0.6975 l 0.106375,-0.0846 c 0.138444,-0.10999 0.305963,-0.16416 0.472865,-0.16504 z m 10.708497,0.003 c 0.476149,7.8e-4 0.960597,0.1031 1.421037,0.31529 1.007402,0.46424 1.416292,1.15533 0.991839,1.67636 -0.331996,0.40754 -0.727127,0.37415 -1.36363,-0.11529 -0.822338,-0.63234 -2.105287,-0.3597 -2.558175,0.54364 -0.389435,0.77678 -0.07331,1.81118 0.66462,2.17469 0.710997,0.35024 1.396597,0.29023 1.939104,-0.1697 l 0.299177,-0.25358 0.318082,0.21702 c 0.174936,0.11939 0.452379,0.32548 0.616559,0.45796 l 0.298479,0.24086 -0.341099,0.33905 c -0.187635,0.18647 -0.584737,0.45496 -0.882394,0.59666 -0.696293,0.33147 -1.666424,0.39523 -2.409041,0.1583 -0.932452,-0.29749 -1.541792,-0.83207 -1.986676,-1.74279 -0.22433,-0.45922 -0.261349,-0.62889 -0.260394,-1.19409 0.0014,-0.83157 0.120363,-1.21889 0.572475,-1.86426 0.624936,-0.89208 1.632508,-1.38181 2.680037,-1.38012 z"
        fill="white" />
</svg>
