<?xml version="1.0" encoding="UTF-8"?>
<svg xmlns="http://www.w3.org/2000/svg" width="300" height="100" fill="white">
  <path d="m 45,11.999998 v 76 h 210 v -76 z m 22.541016,11.03516 h 42.689454 c 3.83305,0 6.91992,2.99607 6.91992,6.71679 0,3.72073 -3.08687,6.7168 -6.91992,6.7168 H 95.289062 v 41.02344 H 81.232422 V 36.468748 H 67.541016 c -3.833066,0 -6.919922,-2.99607 -6.919922,-6.7168 0,-3.72072 3.086856,-6.71679 6.919922,-6.71679 z m 60.076174,0.37305 c 1.80255,-0.01 3.59543,0.72425 4.84961,2.15624 l 19.81445,22.625 19.81445,-22.625 c 2.22963,-2.54577 6.16415,-2.88482 8.82227,-0.76171 l 0.89453,0.71289 c 1.86213,1.48732 2.58605,3.77723 2.08789,5.89062 v 46.08594 H 169.8418 v -28.99805 l -12.38672,14.14258 c -1.32955,1.51807 -3.26385,2.24377 -5.17383,2.13867 -1.90976,0.10489 -3.84443,-0.62078 -5.17383,-2.13867 l -12.38476,-14.14062 v 28.99609 h -14.0586 v -46.08594 c -0.49817,-2.11339 0.22576,-4.4033 2.08789,-5.89062 l 0.89258,-0.71289 c 1.16293,-0.92886 2.57068,-1.38753 3.97266,-1.39453 z m 89.95117,0.0273 c 3.99965,0.007 8.0698,0.87032 11.9375,2.66211 8.46217,3.92026 11.89549,9.75642 8.33008,14.15625 -2.78875,3.44141 -6.10651,3.16039 -11.45313,-0.97266 -6.90763,-5.33973 -17.68597,-3.03834 -21.49023,4.58985 -3.27125,6.55949 -0.61459,15.29563 5.58398,18.36523 5.97238,2.95758 11.73199,2.45029 16.28906,-1.43359 l 2.51172,-2.14258 10.35938,7.73437 -2.86524,2.86328 c -1.57614,1.57467 -4.91178,3.84247 -7.4121,5.03907 -5.84887,2.79913 -13.99834,3.33666 -20.23633,1.33593 -7.83259,-2.51218 -12.95243,-7.0263 -16.68946,-14.71679 -1.88438,-3.87786 -2.19356,-5.31123 -2.18554,-10.08399 0.0118,-7.02216 1.01084,-10.29237 4.80859,-15.74218 5.24946,-7.5331 13.71248,-11.66864 22.51172,-11.6543 z" />
</svg>
